<svg width="32" height="33" viewBox="0 0 32 33" fill="none" xmlns="http://www.w3.org/2000/svg">
<g clip-path="url(#clip0_6691_70)">
<path d="M32 16.484C32 7.66 24.832 0.5 16 0.5C7.168 0.5 0 7.66 0 16.484C0 21.344 2.208 25.724 5.664 28.664C5.696 28.696 5.728 28.696 5.728 28.728C6.016 28.952 6.304 29.176 6.624 29.4C6.784 29.496 6.912 29.622 7.072 29.75C9.71721 31.5405 12.8378 32.4983 16.032 32.5C19.2262 32.4983 22.3468 31.5405 24.992 29.75C25.152 29.654 25.28 29.528 25.44 29.43C25.728 29.208 26.048 28.984 26.336 28.76C26.368 28.728 26.4 28.728 26.4 28.696C29.792 25.722 32 21.344 32 16.484ZM16 30.486C12.992 30.486 10.24 29.526 7.968 27.928C8 27.672 8.064 27.418 8.128 27.162C8.31931 26.4684 8.59893 25.8023 8.96 25.18C9.312 24.572 9.728 24.028 10.24 23.548C10.72 23.068 11.296 22.622 11.872 22.27C12.48 21.918 13.12 21.662 13.824 21.47C14.5337 21.2799 15.2653 21.1838 16 21.184C18.1815 21.1675 20.283 22.0044 21.856 23.516C22.592 24.252 23.168 25.1153 23.584 26.106C23.808 26.682 23.968 27.2893 24.064 27.928C21.7024 29.5883 18.8869 30.4814 16 30.486ZM11.104 15.686C10.8226 15.0403 10.6809 14.3423 10.688 13.638C10.688 12.936 10.816 12.232 11.104 11.592C11.392 10.952 11.776 10.378 12.256 9.898C12.736 9.418 13.312 9.036 13.952 8.748C14.592 8.46 15.296 8.332 16 8.332C16.736 8.332 17.408 8.46 18.048 8.748C18.688 9.036 19.264 9.42 19.744 9.898C20.224 10.378 20.608 10.954 20.896 11.592C21.184 12.232 21.312 12.936 21.312 13.638C21.312 14.374 21.184 15.046 20.896 15.684C20.6196 16.3154 20.2291 16.8904 19.744 17.38C19.2542 17.8644 18.6793 18.2542 18.048 18.53C16.7254 19.0723 15.2426 19.0723 13.92 18.53C13.2887 18.2542 12.7138 17.8644 12.224 17.38C11.7385 16.8973 11.3573 16.322 11.104 15.686ZM25.952 26.298C25.952 26.234 25.92 26.202 25.92 26.138C25.6058 25.1366 25.1419 24.1885 24.544 23.326C23.9456 22.4571 23.2108 21.6906 22.368 21.056C21.7241 20.5715 21.0261 20.1634 20.288 19.84C20.6222 19.6164 20.9331 19.3598 21.216 19.074C21.6931 18.603 22.1121 18.0766 22.464 17.506C23.1751 16.3427 23.5413 15.0013 23.52 13.638C23.5305 12.629 23.3344 11.6285 22.944 10.698C22.559 9.8013 22.0049 8.98714 21.312 8.3C20.6184 7.6221 19.8045 7.07949 18.912 6.7C17.9801 6.30971 16.9782 6.11436 15.968 6.126C14.9576 6.11499 13.9557 6.31102 13.024 6.702C12.1217 7.07686 11.3051 7.63145 10.624 8.332C9.94256 9.02194 9.39946 9.83591 9.024 10.73C8.63356 11.6605 8.43754 12.661 8.448 13.67C8.448 14.374 8.544 15.0453 8.736 15.684C8.928 16.356 9.184 16.964 9.536 17.538C9.856 18.114 10.304 18.626 10.784 19.106C11.072 19.394 11.392 19.6493 11.744 19.872C11.0026 20.2021 10.3041 20.6211 9.664 21.12C8.832 21.76 8.096 22.526 7.488 23.358C6.88455 24.2173 6.42019 25.1662 6.112 26.17C6.08 26.234 6.08 26.298 6.08 26.33C3.552 23.772 1.984 20.32 1.984 16.484C1.984 8.78 8.288 2.482 16 2.482C23.712 2.482 30.016 8.78 30.016 16.484C30.0118 20.1639 28.5506 23.6925 25.952 26.298Z" fill="#100503"/>
<path d="M32 16.484C32 7.66 24.832 0.5 16 0.5C7.168 0.5 0 7.66 0 16.484C0 21.344 2.208 25.724 5.664 28.664C5.696 28.696 5.728 28.696 5.728 28.728C6.016 28.952 6.304 29.176 6.624 29.4C6.784 29.496 6.912 29.622 7.072 29.75C9.71721 31.5405 12.8378 32.4983 16.032 32.5C19.2262 32.4983 22.3468 31.5405 24.992 29.75C25.152 29.654 25.28 29.528 25.44 29.43C25.728 29.208 26.048 28.984 26.336 28.76C26.368 28.728 26.4 28.728 26.4 28.696C29.792 25.722 32 21.344 32 16.484ZM16 30.486C12.992 30.486 10.24 29.526 7.968 27.928C8 27.672 8.064 27.418 8.128 27.162C8.31931 26.4684 8.59893 25.8023 8.96 25.18C9.312 24.572 9.728 24.028 10.24 23.548C10.72 23.068 11.296 22.622 11.872 22.27C12.48 21.918 13.12 21.662 13.824 21.47C14.5337 21.2799 15.2653 21.1838 16 21.184C18.1815 21.1675 20.283 22.0044 21.856 23.516C22.592 24.252 23.168 25.1153 23.584 26.106C23.808 26.682 23.968 27.2893 24.064 27.928C21.7024 29.5883 18.8869 30.4814 16 30.486ZM11.104 15.686C10.8226 15.0403 10.6809 14.3423 10.688 13.638C10.688 12.936 10.816 12.232 11.104 11.592C11.392 10.952 11.776 10.378 12.256 9.898C12.736 9.418 13.312 9.036 13.952 8.748C14.592 8.46 15.296 8.332 16 8.332C16.736 8.332 17.408 8.46 18.048 8.748C18.688 9.036 19.264 9.42 19.744 9.898C20.224 10.378 20.608 10.954 20.896 11.592C21.184 12.232 21.312 12.936 21.312 13.638C21.312 14.374 21.184 15.046 20.896 15.684C20.6196 16.3154 20.2291 16.8904 19.744 17.38C19.2542 17.8644 18.6793 18.2542 18.048 18.53C16.7254 19.0723 15.2426 19.0723 13.92 18.53C13.2887 18.2542 12.7138 17.8644 12.224 17.38C11.7385 16.8973 11.3573 16.322 11.104 15.686ZM25.952 26.298C25.952 26.234 25.92 26.202 25.92 26.138C25.6058 25.1366 25.1419 24.1885 24.544 23.326C23.9456 22.4571 23.2108 21.6906 22.368 21.056C21.7241 20.5715 21.0261 20.1634 20.288 19.84C20.6222 19.6164 20.9331 19.3598 21.216 19.074C21.6931 18.603 22.1121 18.0766 22.464 17.506C23.1751 16.3427 23.5413 15.0013 23.52 13.638C23.5305 12.629 23.3344 11.6285 22.944 10.698C22.559 9.8013 22.0049 8.98714 21.312 8.3C20.6184 7.6221 19.8045 7.07949 18.912 6.7C17.9801 6.30971 16.9782 6.11436 15.968 6.126C14.9576 6.11499 13.9557 6.31102 13.024 6.702C12.1217 7.07686 11.3051 7.63145 10.624 8.332C9.94256 9.02194 9.39946 9.83591 9.024 10.73C8.63356 11.6605 8.43754 12.661 8.448 13.67C8.448 14.374 8.544 15.0453 8.736 15.684C8.928 16.356 9.184 16.964 9.536 17.538C9.856 18.114 10.304 18.626 10.784 19.106C11.072 19.394 11.392 19.6493 11.744 19.872C11.0026 20.2021 10.3041 20.6211 9.664 21.12C8.832 21.76 8.096 22.526 7.488 23.358C6.88455 24.2173 6.42019 25.1662 6.112 26.17C6.08 26.234 6.08 26.298 6.08 26.33C3.552 23.772 1.984 20.32 1.984 16.484C1.984 8.78 8.288 2.482 16 2.482C23.712 2.482 30.016 8.78 30.016 16.484C30.0118 20.1639 28.5506 23.6925 25.952 26.298Z" fill="#100503"/>
</g>
<defs>
<clipPath id="clip0_6691_70">
<rect width="32" height="32" fill="white" transform="translate(0 0.5)"/>
</clipPath>
</defs>
</svg>
