<svg width="24" height="24" viewBox="0 0 24 24" fill="none" xmlns="http://www.w3.org/2000/svg">
  <path d="M22.2857 6.85714H18.1714V6.17143C18.1714 4.53466 17.5212 2.96494 16.3639 1.80757C15.2065 0.650202 13.6368 0 12 0C10.3632 0 8.79351 0.650202 7.63614 1.80757C6.47877 2.96494 5.82857 4.53466 5.82857 6.17143V6.85714H1.71429C1.25963 6.85714 0.823594 7.03775 0.502103 7.35925C0.180612 7.68074 0 8.11677 0 8.57143V20.2286C0 21.2288 0.397346 22.1881 1.10463 22.8954C1.81191 23.6027 2.77118 24 3.77143 24H20.2286C21.2288 24 22.1881 23.6027 22.8954 22.8954C23.6027 22.1881 24 21.2288 24 20.2286V8.57143C24 8.11677 23.8194 7.68074 23.4979 7.35925C23.1764 7.03775 22.7404 6.85714 22.2857 6.85714ZM7.88571 6.17143C7.88571 5.08025 8.31918 4.03377 9.09076 3.26219C9.86234 2.49061 10.9088 2.05714 12 2.05714C13.0912 2.05714 14.1377 2.49061 14.9092 3.26219C15.6808 4.03377 16.1143 5.08025 16.1143 6.17143V6.85714H7.88571V6.17143ZM21.9429 20.2286C21.9429 20.6832 21.7622 21.1193 21.4408 21.4408C21.1193 21.7622 20.6832 21.9429 20.2286 21.9429H3.77143C3.31677 21.9429 2.88074 21.7622 2.55925 21.4408C2.23775 21.1193 2.05714 20.6832 2.05714 20.2286V8.91429H5.82857V12C5.82857 12.2728 5.93694 12.5344 6.12983 12.7273C6.32273 12.9202 6.58435 13.0286 6.85714 13.0286C7.12994 13.0286 7.39156 12.9202 7.58445 12.7273C7.77735 12.5344 7.88571 12.2728 7.88571 12V8.91429H16.1143V12C16.1143 12.2728 16.2227 12.5344 16.4155 12.7273C16.6084 12.9202 16.8701 13.0286 17.1429 13.0286C17.4157 13.0286 17.6773 12.9202 17.8702 12.7273C18.0631 12.5344 18.1714 12.2728 18.1714 12V8.91429H21.9429V20.2286Z" fill="#3251AE" />
<path class="selectedBasketPath" d="M22.2857 6.85714H18.1714V6.17143C18.1714 4.53466 17.5212 2.96494 16.3639 1.80757C15.2065 0.650202 13.6368 0 12 0C10.3632 0 8.79351 0.650202 7.63614 1.80757C6.47877 2.96494 5.82857 4.53466 5.82857 6.17143V6.85714H1.71429C1.25963 6.85714 0.823594 7.03775 0.502103 7.35925C0.180612 7.68074 0 8.11677 0 8.57143V20.2286C0 21.2288 0.397346 22.1881 1.10463 22.8954C1.81191 23.6027 2.77118 24 3.77143 24H20.2286C21.2288 24 22.1881 23.6027 22.8954 22.8954C23.6027 22.1881 24 21.2288 24 20.2286V8.57143C24 8.11677 23.8194 7.68074 23.4979 7.35925C23.1764 7.03775 22.7404 6.85714 22.2857 6.85714ZM7.88571 6.17143C7.88571 5.08025 8.31918 4.03377 9.09076 3.26219C9.86234 2.49061 10.9088 2.05714 12 2.05714C13.0912 2.05714 14.1377 2.49061 14.9092 3.26219C15.6808 4.03377 16.1143 5.08025 16.1143 6.17143V6.85714H7.88571V6.17143ZM21.9429 20.2286C21.9429 20.6832 21.7622 21.1193 21.4408 21.4408C21.1193 21.7622 20.6832 21.9429 20.2286 21.9429H3.77143C3.31677 21.9429 2.88074 21.7622 2.55925 21.4408C2.23775 21.1193 2.05714 20.6832 2.05714 20.2286V8.91429H5.82857V12C5.82857 12.2728 5.93694 12.5344 6.12983 12.7273C6.32273 12.9202 6.58435 13.0286 6.85714 13.0286C7.12994 13.0286 7.39156 12.9202 7.58445 12.7273C7.77735 12.5344 7.88571 12.2728 7.88571 12V8.91429H16.1143V12C16.1143 12.2728 16.2227 12.5344 16.4155 12.7273C16.6084 12.9202 16.8701 13.0286 17.1429 13.0286C17.4157 13.0286 17.6773 12.9202 17.8702 12.7273C18.0631 12.5344 18.1714 12.2728 18.1714 12V8.91429H21.9429V20.2286Z" stroke="#3251AE" />
  <rect class="selectedBasketPath" x="1" y="8" width="22" height="14" fill="#3251AE" />
</svg>