<svg width="44" height="44" viewBox="0 0 44 44" fill="none" xmlns="http://www.w3.org/2000/svg">
    <path
        d="M32.3571 16.8571H28.4143V16.1714C28.4143 14.5347 27.7912 12.9649 26.682 11.8076C25.5729 10.6502 24.0686 10 22.5 10C20.9314 10 19.4271 10.6502 18.318 11.8076C17.2088 12.9649 16.5857 14.5347 16.5857 16.1714V16.8571H12.6429C12.2071 16.8571 11.7893 17.0378 11.4812 17.3592C11.1731 17.6807 11 18.1168 11 18.5714V30.2286C11 31.2288 11.3808 32.1881 12.0586 32.8954C12.7364 33.6027 13.6557 34 14.6143 34H30.3857C31.3443 34 32.2636 33.6027 32.9414 32.8954C33.6192 32.1881 34 31.2288 34 30.2286V18.5714C34 18.1168 33.8269 17.6807 33.5188 17.3592C33.2107 17.0378 32.7929 16.8571 32.3571 16.8571ZM18.5571 16.1714C18.5571 15.0803 18.9725 14.0338 19.712 13.2622C20.4514 12.4906 21.4543 12.0571 22.5 12.0571C23.5457 12.0571 24.5486 12.4906 25.288 13.2622C26.0275 14.0338 26.4429 15.0803 26.4429 16.1714V16.8571H18.5571V16.1714ZM32.0286 30.2286C32.0286 30.6832 31.8555 31.1193 31.5474 31.4408C31.2393 31.7622 30.8214 31.9429 30.3857 31.9429H14.6143C14.1786 31.9429 13.7607 31.7622 13.4526 31.4408C13.1445 31.1193 12.9714 30.6832 12.9714 30.2286V18.9143H16.5857V22C16.5857 22.2728 16.6896 22.5344 16.8744 22.7273C17.0593 22.9202 17.31 23.0286 17.5714 23.0286C17.8329 23.0286 18.0836 22.9202 18.2684 22.7273C18.4533 22.5344 18.5571 22.2728 18.5571 22V18.9143H26.4429V22C26.4429 22.2728 26.5467 22.5344 26.7316 22.7273C26.9164 22.9202 27.1671 23.0286 27.4286 23.0286C27.69 23.0286 27.9407 22.9202 28.1256 22.7273C28.3104 22.5344 28.4143 22.2728 28.4143 22V18.9143H32.0286V30.2286Z"
        fill="#000105" />
</svg>