<svg width="23" height="24" viewBox="0 0 24 24" fill="none" xmlns="http://www.w3.org/2000/svg">
<path d="M21.3571 6.85714H17.4143V6.17143C17.4143 4.53466 16.7912 2.96494 15.682 1.80757C14.5729 0.650202 13.0686 0 11.5 0C9.93143 0 8.42711 0.650202 7.31797 1.80757C6.20883 2.96494 5.58571 4.53466 5.58571 6.17143V6.85714H1.64286C1.20714 6.85714 0.789277 7.03775 0.481182 7.35925C0.173086 7.68074 0 8.11677 0 8.57143V20.2286C0 21.2288 0.38079 22.1881 1.0586 22.8954C1.73641 23.6027 2.65572 24 3.61429 24H19.3857C20.3443 24 21.2636 23.6027 21.9414 22.8954C22.6192 22.1881 23 21.2288 23 20.2286V8.57143C23 8.11677 22.8269 7.68074 22.5188 7.35925C22.2107 7.03775 21.7929 6.85714 21.3571 6.85714ZM7.55714 6.17143C7.55714 5.08025 7.97255 4.03377 8.71198 3.26219C9.45141 2.49061 10.4543 2.05714 11.5 2.05714C12.5457 2.05714 13.5486 2.49061 14.288 3.26219C15.0275 4.03377 15.4429 5.08025 15.4429 6.17143V6.85714H7.55714V6.17143ZM21.0286 20.2286C21.0286 20.6832 20.8555 21.1193 20.5474 21.4408C20.2393 21.7622 19.8214 21.9429 19.3857 21.9429H3.61429C3.17857 21.9429 2.76071 21.7622 2.45261 21.4408C2.14451 21.1193 1.97143 20.6832 1.97143 20.2286V8.91429H5.58571V12C5.58571 12.2728 5.68957 12.5344 5.87442 12.7273C6.05928 12.9202 6.31 13.0286 6.57143 13.0286C6.83286 13.0286 7.08358 12.9202 7.26843 12.7273C7.45329 12.5344 7.55714 12.2728 7.55714 12V8.91429H15.4429V12C15.4429 12.2728 15.5467 12.5344 15.7316 12.7273C15.9164 12.9202 16.1671 13.0286 16.4286 13.0286C16.69 13.0286 16.9407 12.9202 17.1256 12.7273C17.3104 12.5344 17.4143 12.2728 17.4143 12V8.91429H21.0286V20.2286Z" fill="#000105"/>
</svg>
