<svg width="10" height="8" viewBox="0 0 10 8" fill="none" xmlns="http://www.w3.org/2000/svg">
<path d="M9.23483 1.04927C9.17303 0.986064 9.08865 0.949996 9.00026 0.948996C8.91187 0.947996 8.82671 0.982145 8.76349 1.04393L3.55949 6.2486L1.23483 3.9246C1.17196 3.86388 1.08776 3.83028 1.00036 3.83104C0.91296 3.8318 0.829356 3.86686 0.767553 3.92866C0.70575 3.99046 0.670694 4.07407 0.669934 4.16147C0.669175 4.24887 0.702773 4.33307 0.763492 4.39593L3.32349 6.95593C3.35435 6.98704 3.39107 7.01172 3.43151 7.02857C3.47196 7.04541 3.51534 7.05409 3.55916 7.05409C3.60297 7.05409 3.64636 7.04541 3.6868 7.02857C3.72725 7.01172 3.76396 6.98704 3.79483 6.95593L9.23483 1.51593C9.2959 1.45362 9.33011 1.36985 9.33011 1.2826C9.33011 1.19535 9.2959 1.11158 9.23483 1.04927Z" fill="white"/>
</svg>
