<svg width="22" height="18" viewBox="0 0 22 18" fill="none" xmlns="http://www.w3.org/2000/svg">
<path d="M9.73 2.073C10.1516 2.0241 10.5756 1.99973 11 2C15.664 2 19.4 4.903 21 9C20.6127 9.99659 20.0894 10.9348 19.445 11.788M5.52 3.519C3.48 4.764 1.9 6.693 1 9C2.6 13.097 6.336 16 11 16C12.9321 16.0102 14.8292 15.484 16.48 14.48M8.88 6.88C8.6014 7.1586 8.3804 7.48935 8.22963 7.85335C8.07885 8.21736 8.00125 8.6075 8.00125 9.0015C8.00125 9.3955 8.07885 9.78564 8.22963 10.1496C8.3804 10.5137 8.6014 10.8444 8.88 11.123C9.1586 11.4016 9.48934 11.6226 9.85335 11.7734C10.2174 11.9242 10.6075 12.0018 11.0015 12.0018C11.3955 12.0018 11.7856 11.9242 12.1496 11.7734C12.5137 11.6226 12.8444 11.4016 13.123 11.123" fill="white"/>
<path d="M9.73 2.073C10.1516 2.0241 10.5756 1.99973 11 2C15.664 2 19.4 4.903 21 9C20.6127 9.99659 20.0894 10.9348 19.445 11.788M5.52 3.519C3.48 4.764 1.9 6.693 1 9C2.6 13.097 6.336 16 11 16C12.9321 16.0102 14.8292 15.484 16.48 14.48M8.88 6.88C8.6014 7.1586 8.3804 7.48935 8.22963 7.85335C8.07885 8.21736 8.00125 8.6075 8.00125 9.0015C8.00125 9.3955 8.07885 9.78564 8.22963 10.1496C8.3804 10.5137 8.6014 10.8444 8.88 11.123C9.1586 11.4016 9.48934 11.6226 9.85335 11.7734C10.2174 11.9242 10.6075 12.0018 11.0015 12.0018C11.3955 12.0018 11.7856 11.9242 12.1496 11.7734C12.5137 11.6226 12.8444 11.4016 13.123 11.123" stroke="#100503" stroke-width="1.5" stroke-linecap="round" stroke-linejoin="round"/>
<path d="M3 1L19 17L3 1Z" fill="white"/>
<path d="M3 1L19 17" stroke="#100503" stroke-width="1.5" stroke-linecap="round"/>
</svg>
