<svg width="19" height="19" viewBox="0 0 19 19" fill="none" xmlns="http://www.w3.org/2000/svg">
<path d="M9.25869 18.1582C14.3227 18.1582 18.5174 14.0537 18.5174 9.0791C18.5174 4.11328 14.3227 0 9.24972 0C4.18568 0 0 4.11328 0 9.0791C0 14.0537 4.19464 18.1582 9.25869 18.1582ZM9.25869 16.374C5.13575 16.374 1.82843 13.1221 1.82843 9.0791C1.82843 5.03613 5.12679 1.79297 9.24972 1.79297C13.3727 1.79297 16.6889 5.03613 16.6979 9.0791C16.6979 13.1221 13.3816 16.374 9.25869 16.374ZM13.301 13.667C13.4713 13.834 13.7581 13.8428 13.9284 13.667C14.1076 13.4912 14.1076 13.2275 13.9284 13.0518L5.18953 4.48242C5.01923 4.30664 4.73242 4.30664 4.55316 4.48242C4.38286 4.64941 4.38286 4.93066 4.55316 5.09766L13.301 13.667ZM11.6428 9.82617L13.3996 11.5576C14.6723 10.6611 15.4252 9.57129 15.4252 9.0791C15.4252 8.18262 12.9245 5.27344 9.24972 5.27344C8.55958 5.27344 7.90529 5.37891 7.30477 5.56348L8.49684 6.74121C8.72988 6.65332 8.9898 6.60938 9.24972 6.60938C10.6479 6.60938 11.7773 7.70801 11.7773 9.08789C11.7773 9.34277 11.7325 9.58887 11.6428 9.82617ZM11.2126 12.6035L10.0116 11.417C9.76957 11.5049 9.51861 11.5576 9.24972 11.5576C7.85151 11.5576 6.72218 10.4238 6.71322 9.08789C6.71322 8.82422 6.767 8.56055 6.85663 8.33203L5.10886 6.61816C3.83613 7.50586 3.07428 8.5957 3.07428 9.0791C3.07428 9.98438 5.61078 12.8936 9.24972 12.8936C9.94883 12.8936 10.6121 12.7793 11.2126 12.6035ZM9.52757 7.75195L10.6031 8.80664C10.5852 8.25293 10.1191 7.76953 9.52757 7.75195ZM8.98084 10.4062L7.89633 9.34277C7.88736 9.8877 8.37136 10.4062 8.98084 10.4062Z" fill="white"/>
</svg>
