<svg width="24" height="24" viewBox="0 0 24 24" fill="none" xmlns="http://www.w3.org/2000/svg">
<path d="M16.1335 19.847L16.1324 19.8464L12.4664 17.9194L12.4658 17.9191C12.3226 17.8441 12.1634 17.8049 12.0018 17.8049C11.8402 17.8049 11.681 17.8441 11.5378 17.9191L11.5374 17.9193L10.5553 18.4349L11.5331 17.9192L11.5331 17.9192C11.677 17.8433 11.8372 17.8036 11.9998 17.8036C12.1624 17.8036 12.3226 17.8433 12.4665 17.9192L12.4674 17.9197L16.1314 19.8427L16.1317 19.8428C16.2968 19.9294 16.4828 19.968 16.6687 19.9545C16.8547 19.9409 17.0331 19.8756 17.1839 19.766C17.3347 19.6564 17.4519 19.5068 17.5221 19.3341C17.5924 19.1615 17.613 18.9726 17.5817 18.7888L17.5816 18.7885L16.8816 14.7065C16.8816 14.7065 16.8816 14.7065 16.8816 14.7065C16.8542 14.5466 16.8661 14.3825 16.9163 14.2283C16.9665 14.0741 17.0534 13.9344 17.1696 13.8212L17.1698 13.821L20.1347 10.9312C20.2684 10.801 20.363 10.6359 20.4077 10.4547C20.4525 10.2735 20.4457 10.0834 20.3881 9.90593C20.3463 9.77739 20.2791 9.65917 20.1911 9.55805C20.2811 9.66012 20.3497 9.77991 20.3921 9.91034C20.4498 10.0879 20.4567 10.278 20.412 10.4592C20.3672 10.6405 20.2726 10.8056 20.1389 10.9358L20.1387 10.936L17.1739 13.8268C17.1738 13.8269 17.1738 13.8269 17.1737 13.827C17.0578 13.94 16.9711 14.0794 16.9209 14.2333C16.8707 14.3873 16.8587 14.5512 16.8859 14.7108L16.886 14.7115L17.586 18.7935L17.586 18.7936C17.6107 18.9372 17.6037 19.0845 17.5655 19.2251C17.5273 19.3657 17.4589 19.4962 17.365 19.6076C17.271 19.719 17.1539 19.8085 17.0218 19.8699C16.8897 19.9312 16.7458 19.963 16.6002 19.963C16.4375 19.9628 16.2774 19.923 16.1335 19.847ZM6.47727 19.3435C6.48271 19.3568 6.48842 19.3701 6.49441 19.3832C6.48757 19.3684 6.48108 19.3535 6.47494 19.3384C6.4046 19.1656 6.38405 18.9765 6.41561 18.7925L6.41561 18.7925L7.11558 14.7107C7.11559 14.7106 7.1156 14.7106 7.11561 14.7105C7.14299 14.5511 7.13127 14.3874 7.08148 14.2334C7.03166 14.0795 6.94522 13.9399 6.82958 13.8267L6.82892 13.826L6.13509 13.1493L6.8309 13.8261C6.94739 13.9396 7.03445 14.0798 7.08452 14.2345C7.13459 14.3893 7.14616 14.5539 7.11823 14.7141L7.118 14.7155L6.41804 18.7972C6.41802 18.7973 6.41801 18.7974 6.418 18.7975C6.38641 18.9814 6.40694 19.1706 6.47727 19.3435ZM3.91606 9.45827C3.79802 9.55779 3.70497 9.683 3.64371 9.82378C3.705 9.68112 3.79886 9.55428 3.91825 9.45371C4.06103 9.33345 4.23462 9.25555 4.41937 9.22883L4.4202 9.22871L8.51993 8.62875C8.52002 8.62873 8.52011 8.62872 8.52021 8.62871C8.68028 8.60533 8.8323 8.54346 8.96321 8.44841C9.09419 8.3533 9.20014 8.22783 9.27193 8.08275L9.27217 8.08226L9.54603 7.52737L9.27055 8.08646C9.27053 8.08651 9.27051 8.08655 9.27048 8.0866C9.19865 8.23191 9.09256 8.35758 8.96137 8.45278C8.83013 8.54802 8.6777 8.60991 8.51722 8.63313L8.51641 8.63325L4.41695 9.23317C4.41683 9.23318 4.4167 9.2332 4.41658 9.23322C4.41652 9.23323 4.41646 9.23324 4.41641 9.23324C4.23191 9.26014 4.0586 9.33808 3.91606 9.45827ZM11.1416 4.30101C11.2234 4.16319 11.3372 4.04668 11.4739 3.96171C11.6324 3.86323 11.8152 3.81104 12.0018 3.81104C12.1884 3.81104 12.3712 3.86323 12.5297 3.96171C12.6881 4.06018 12.8158 4.201 12.8984 4.36826C12.8985 4.36828 12.8985 4.36831 12.8985 4.36833L14.7311 8.08167C14.7727 8.16611 14.8258 8.24395 14.8886 8.31308C14.8241 8.24302 14.7697 8.16385 14.7272 8.07782L14.7271 8.07755L12.8971 4.37255L12.8913 4.36077L12.8849 4.3493C12.7965 4.19193 12.6679 4.06091 12.5122 3.96973C12.3565 3.87854 12.1793 3.83048 11.9988 3.83048C11.8183 3.83048 11.6411 3.87854 11.4854 3.96973C11.3459 4.05142 11.2281 4.16507 11.1416 4.30101Z" fill="#E85A50" stroke="#E85A50"/>
</svg>
