<svg width="12" height="7" viewBox="0 0 12 7" fill="none" xmlns="http://www.w3.org/2000/svg">
<mask id="path-1-inside-1_8055_7326" fill="white">
<path d="M4 6.5C4 6.36739 4.05268 6.24021 4.14645 6.14645C4.24021 6.05268 4.36739 6 4.5 6H7.5C7.63261 6 7.75979 6.05268 7.85355 6.14645C7.94732 6.24021 8 6.36739 8 6.5C8 6.63261 7.94732 6.75979 7.85355 6.85355C7.75979 6.94732 7.63261 7 7.5 7H4.5C4.36739 7 4.24021 6.94732 4.14645 6.85355C4.05268 6.75979 4 6.63261 4 6.5ZM2 3.5C2 3.36739 2.05268 3.24021 2.14645 3.14645C2.24021 3.05268 2.36739 3 2.5 3H9.5C9.63261 3 9.75979 3.05268 9.85355 3.14645C9.94732 3.24021 10 3.36739 10 3.5C10 3.63261 9.94732 3.75979 9.85355 3.85355C9.75979 3.94732 9.63261 4 9.5 4H2.5C2.36739 4 2.24021 3.94732 2.14645 3.85355C2.05268 3.75979 2 3.63261 2 3.5ZM0 0.5C0 0.367392 0.0526785 0.240215 0.146447 0.146447C0.240215 0.0526785 0.367392 0 0.5 0H11.5C11.6326 0 11.7598 0.0526785 11.8536 0.146447C11.9473 0.240215 12 0.367392 12 0.5C12 0.632608 11.9473 0.759785 11.8536 0.853553C11.7598 0.947321 11.6326 1 11.5 1H0.5C0.367392 1 0.240215 0.947321 0.146447 0.853553C0.0526785 0.759785 0 0.632608 0 0.5Z"/>
</mask>
<path d="M4 6.5C4 6.36739 4.05268 6.24021 4.14645 6.14645C4.24021 6.05268 4.36739 6 4.5 6H7.5C7.63261 6 7.75979 6.05268 7.85355 6.14645C7.94732 6.24021 8 6.36739 8 6.5C8 6.63261 7.94732 6.75979 7.85355 6.85355C7.75979 6.94732 7.63261 7 7.5 7H4.5C4.36739 7 4.24021 6.94732 4.14645 6.85355C4.05268 6.75979 4 6.63261 4 6.5ZM2 3.5C2 3.36739 2.05268 3.24021 2.14645 3.14645C2.24021 3.05268 2.36739 3 2.5 3H9.5C9.63261 3 9.75979 3.05268 9.85355 3.14645C9.94732 3.24021 10 3.36739 10 3.5C10 3.63261 9.94732 3.75979 9.85355 3.85355C9.75979 3.94732 9.63261 4 9.5 4H2.5C2.36739 4 2.24021 3.94732 2.14645 3.85355C2.05268 3.75979 2 3.63261 2 3.5ZM0 0.5C0 0.367392 0.0526785 0.240215 0.146447 0.146447C0.240215 0.0526785 0.367392 0 0.5 0H11.5C11.6326 0 11.7598 0.0526785 11.8536 0.146447C11.9473 0.240215 12 0.367392 12 0.5C12 0.632608 11.9473 0.759785 11.8536 0.853553C11.7598 0.947321 11.6326 1 11.5 1H0.5C0.367392 1 0.240215 0.947321 0.146447 0.853553C0.0526785 0.759785 0 0.632608 0 0.5Z" fill="black"/>
<path d="M2 3.5H3H2ZM0.5 0V1V0ZM11.5 0V1V0ZM5 6.5C5 6.63261 4.94732 6.75978 4.85355 6.85355L3.43934 5.43934C3.15804 5.72064 3 6.10218 3 6.5H5ZM4.85355 6.85355C4.75978 6.94732 4.63261 7 4.5 7V5C4.10218 5 3.72065 5.15803 3.43934 5.43934L4.85355 6.85355ZM4.5 7H7.5V5H4.5V7ZM7.5 7C7.36739 7 7.24022 6.94732 7.14645 6.85355L8.56066 5.43934C8.27935 5.15803 7.89782 5 7.5 5V7ZM7.14645 6.85355C7.05268 6.75978 7 6.63261 7 6.5H9C9 6.10218 8.84197 5.72065 8.56066 5.43934L7.14645 6.85355ZM7 6.5C7 6.36739 7.05268 6.24022 7.14645 6.14645L8.56066 7.56066C8.84197 7.27935 9 6.89782 9 6.5H7ZM7.14645 6.14645C7.24022 6.05268 7.36739 6 7.5 6V8C7.89782 8 8.27935 7.84197 8.56066 7.56066L7.14645 6.14645ZM7.5 6H4.5V8H7.5V6ZM4.5 6C4.63261 6 4.75978 6.05268 4.85355 6.14645L3.43934 7.56066C3.72065 7.84197 4.10218 8 4.5 8V6ZM4.85355 6.14645C4.94732 6.24022 5 6.36739 5 6.5H3C3 6.89782 3.15804 7.27936 3.43934 7.56066L4.85355 6.14645ZM3 3.5C3 3.63261 2.94732 3.75979 2.85355 3.85355L1.43934 2.43934C1.15804 2.72064 1 3.10217 1 3.5H3ZM2.85355 3.85355C2.75979 3.94732 2.63261 4 2.5 4V2C2.10217 2 1.72064 2.15804 1.43934 2.43934L2.85355 3.85355ZM2.5 4H9.5V2H2.5V4ZM9.5 4C9.36739 4 9.24022 3.94732 9.14645 3.85355L10.5607 2.43934C10.2794 2.15804 9.89782 2 9.5 2V4ZM9.14645 3.85355C9.05268 3.75978 9 3.63261 9 3.5H11C11 3.10218 10.842 2.72065 10.5607 2.43934L9.14645 3.85355ZM9 3.5C9 3.36739 9.05268 3.24022 9.14645 3.14645L10.5607 4.56066C10.842 4.27935 11 3.89782 11 3.5H9ZM9.14645 3.14645C9.24022 3.05268 9.36739 3 9.5 3V5C9.89782 5 10.2794 4.84196 10.5607 4.56066L9.14645 3.14645ZM9.5 3H2.5V5H9.5V3ZM2.5 3C2.63261 3 2.75979 3.05268 2.85355 3.14645L1.43934 4.56066C1.72064 4.84196 2.10217 5 2.5 5V3ZM2.85355 3.14645C2.94732 3.24021 3 3.36739 3 3.5H1C1 3.89783 1.15804 4.27936 1.43934 4.56066L2.85355 3.14645ZM1 0.5C1 0.632609 0.947321 0.759786 0.853553 0.853553L-0.56066 -0.56066C-0.841964 -0.279356 -1 0.102175 -1 0.5H1ZM0.853553 0.853553C0.759786 0.947321 0.632609 1 0.5 1V-1C0.102175 -1 -0.279356 -0.841964 -0.56066 -0.56066L0.853553 0.853553ZM0.5 1H11.5V-1H0.5V1ZM11.5 1C11.3674 1 11.2402 0.947322 11.1464 0.853553L12.5607 -0.56066C12.2794 -0.841965 11.8978 -1 11.5 -1V1ZM11.1464 0.853553C11.0527 0.759784 11 0.632607 11 0.5H13C13 0.102177 12.842 -0.279354 12.5607 -0.56066L11.1464 0.853553ZM11 0.5C11 0.367393 11.0527 0.240216 11.1464 0.146447L12.5607 1.56066C12.842 1.27935 13 0.897823 13 0.5H11ZM11.1464 0.146447C11.2402 0.0526781 11.3674 0 11.5 0V2C11.8978 2 12.2794 1.84196 12.5607 1.56066L11.1464 0.146447ZM11.5 0H0.5V2H11.5V0ZM0.5 0C0.632609 0 0.759786 0.0526788 0.853553 0.146447L-0.56066 1.56066C-0.279356 1.84196 0.102175 2 0.5 2V0ZM0.853553 0.146447C0.947321 0.240214 1 0.367391 1 0.5H-1C-1 0.897825 -0.841964 1.27936 -0.56066 1.56066L0.853553 0.146447Z" fill="#100503" mask="url(#path-1-inside-1_8055_7326)"/>
</svg>
