<svg width="23" height="22" viewBox="0 0 23 22" fill="none" xmlns="http://www.w3.org/2000/svg">
<path d="M1.69429 6.061C2.62817 4.23857 4.06083 2.70656 5.83212 1.63622C7.60341 0.56587 9.64354 -0.000641925 11.7245 5.45854e-07C14.7495 5.45854e-07 17.2907 1.0901 19.2337 2.8655L16.0156 6.0203C14.8516 4.9302 13.3722 4.3747 11.7245 4.3747C8.80051 4.3747 6.32551 6.3107 5.44439 8.91C5.2199 9.57 5.09194 10.274 5.09194 11C5.09194 11.726 5.2199 12.43 5.44439 13.09C6.32663 15.6904 8.80051 17.6253 11.7245 17.6253C13.2342 17.6253 14.5194 17.2348 15.5251 16.5748C16.1081 16.1986 16.6073 15.7105 16.9924 15.1398C17.3774 14.5692 17.6405 13.928 17.7655 13.255H11.7245V9.0002H22.2957C22.4282 9.7196 22.5 10.4698 22.5 11.2497C22.5 14.6003 21.2765 17.4207 19.1529 19.3347C17.2963 21.0155 14.7551 22 11.7245 22C10.2503 22.0006 8.79045 21.7164 7.42837 21.1639C6.06628 20.6113 4.82867 19.801 3.78626 18.7795C2.74385 17.7579 1.91709 16.545 1.35321 15.2102C0.789338 13.8754 0.499411 12.4447 0.500001 11C0.500001 9.2246 0.933266 7.546 1.69429 6.061Z" fill="black"/>
</svg>
