<svg width="20" height="20" viewBox="0 0 20 20" fill="none" xmlns="http://www.w3.org/2000/svg">
<path opacity="0.5" d="M18.2925 8.05835C18.2444 7.91059 18.1559 7.77922 18.0371 7.67908C17.9182 7.57895 17.7738 7.51404 17.62 7.49168L12.8708 6.80168L10.7475 2.49835C10.6751 2.36456 10.5668 2.2537 10.4347 2.17829C10.3026 2.10289 10.152 2.06596 10 2.07168V15.6383L14.2475 17.8708C14.3851 17.9432 14.5402 17.9756 14.6953 17.9644C14.8504 17.9532 14.9993 17.8989 15.1251 17.8075C15.2509 17.7161 15.3486 17.5913 15.4072 17.4473C15.4658 17.3033 15.4829 17.1458 15.4567 16.9925L14.6458 12.2625L18.0817 8.91252C18.193 8.80398 18.2717 8.66647 18.309 8.51552C18.3463 8.36458 18.3405 8.20622 18.2925 8.05835Z" fill="#C4C4C4"/>
<path d="M9.25209 2.49832L7.12876 6.80166L2.37959 7.49166C2.22567 7.51401 2.08108 7.57899 1.96218 7.67924C1.84327 7.7795 1.7548 7.91103 1.70676 8.05896C1.65872 8.20688 1.65304 8.3653 1.69036 8.51629C1.72768 8.66728 1.8065 8.80481 1.91792 8.91332L5.35376 12.2625L4.54292 16.9925C4.51678 17.1456 4.53396 17.303 4.59253 17.4469C4.6511 17.5908 4.74873 17.7155 4.87439 17.8068C5.00006 17.8982 5.14875 17.9526 5.3037 17.9639C5.45864 17.9752 5.61366 17.943 5.75126 17.8708L9.99959 15.6375V2.08582C9.8498 2.08322 9.70195 2.11994 9.57079 2.19232C9.43963 2.2647 9.32974 2.37021 9.25209 2.49832Z" fill="#E85A50"/>
</svg>
