<svg width="24" height="24" viewBox="0 0 24 24" fill="none" xmlns="http://www.w3.org/2000/svg">
<path d="M20.25 0H3.75C1.67893 0 0 1.67893 0 3.75V20.25C0 22.3211 1.67893 24 3.75 24H20.25C22.3211 24 24 22.3211 24 20.25V3.75C24 1.67893 22.3211 0 20.25 0Z" fill="#100503"/>
<path d="M11.9999 6.90002C13.6499 6.90002 13.8749 6.90002 14.5499 6.90002C15.1499 6.90002 15.4499 7.05002 15.6749 7.12502C15.9749 7.27502 16.1999 7.35002 16.4249 7.57502C16.6499 7.80002 16.7999 8.02502 16.8749 8.32502C16.9499 8.55002 17.0249 8.85002 17.0999 9.45002C17.0999 10.125 17.0999 10.275 17.0999 12C17.0999 13.725 17.0999 13.875 17.0999 14.55C17.0999 15.15 16.9499 15.45 16.8749 15.675C16.7249 15.975 16.6499 16.2 16.4249 16.425C16.1999 16.65 15.9749 16.8 15.6749 16.875C15.4499 16.95 15.1499 17.025 14.5499 17.1C13.8749 17.1 13.7249 17.1 11.9999 17.1C10.2749 17.1 10.1249 17.1 9.4499 17.1C8.8499 17.1 8.5499 16.95 8.3249 16.875C8.0249 16.725 7.7999 16.65 7.5749 16.425C7.3499 16.2 7.1999 15.975 7.1249 15.675C7.0499 15.45 6.9749 15.15 6.8999 14.55C6.8999 13.875 6.8999 13.725 6.8999 12C6.8999 10.275 6.8999 10.125 6.8999 9.45002C6.8999 8.85002 7.0499 8.55002 7.1249 8.32502C7.2749 8.02502 7.3499 7.80002 7.5749 7.57502C7.7999 7.35002 8.0249 7.20002 8.3249 7.12502C8.5499 7.05002 8.8499 6.97502 9.4499 6.90002C10.1249 6.90002 10.3499 6.90002 11.9999 6.90002ZM11.9999 5.77502C10.2749 5.77502 10.1249 5.77502 9.4499 5.77502C8.7749 5.77502 8.3249 5.92502 7.9499 6.07502C7.5749 6.22502 7.1999 6.45002 6.8249 6.82502C6.4499 7.20002 6.2999 7.50002 6.0749 7.95002C5.9249 8.32502 5.8499 8.77502 5.7749 9.45002C5.7749 10.125 5.7749 10.35 5.7749 12C5.7749 13.725 5.7749 13.875 5.7749 14.55C5.7749 15.225 5.9249 15.675 6.0749 16.05C6.2249 16.425 6.4499 16.8 6.8249 17.175C7.1999 17.55 7.4999 17.7 7.9499 17.925C8.3249 18.075 8.7749 18.15 9.4499 18.225C10.1249 18.225 10.3499 18.225 11.9999 18.225C13.6499 18.225 13.8749 18.225 14.5499 18.225C15.2249 18.225 15.6749 18.075 16.0499 17.925C16.4249 17.775 16.7999 17.55 17.1749 17.175C17.5499 16.8 17.6999 16.5 17.9249 16.05C18.0749 15.675 18.1499 15.225 18.2249 14.55C18.2249 13.875 18.2249 13.65 18.2249 12C18.2249 10.35 18.2249 10.125 18.2249 9.45002C18.2249 8.77502 18.0749 8.32502 17.9249 7.95002C17.7749 7.57502 17.5499 7.20002 17.1749 6.82502C16.7999 6.45002 16.4999 6.30002 16.0499 6.07502C15.6749 5.92502 15.2249 5.85002 14.5499 5.77502C13.8749 5.77502 13.7249 5.77502 11.9999 5.77502Z" fill="white"/>
<path d="M11.9999 8.77502C10.1999 8.77502 8.7749 10.2 8.7749 12C8.7749 13.8 10.1999 15.225 11.9999 15.225C13.7999 15.225 15.2249 13.8 15.2249 12C15.2249 10.2 13.7999 8.77502 11.9999 8.77502ZM11.9999 14.1C10.8749 14.1 9.8999 13.2 9.8999 12C9.8999 10.875 10.7999 9.90002 11.9999 9.90002C13.1249 9.90002 14.0999 10.8 14.0999 12C14.0999 13.125 13.1249 14.1 11.9999 14.1Z" fill="white"/>
<path d="M15.2999 9.45002C15.7141 9.45002 16.0499 9.11424 16.0499 8.70002C16.0499 8.28581 15.7141 7.95002 15.2999 7.95002C14.8857 7.95002 14.5499 8.28581 14.5499 8.70002C14.5499 9.11424 14.8857 9.45002 15.2999 9.45002Z" fill="white"/>
</svg>
