<svg width="24" height="24" viewBox="0 0 24 24" fill="none" xmlns="http://www.w3.org/2000/svg">
<path fill-rule="evenodd" clip-rule="evenodd" d="M5.624 4.42395C3.965 5.18195 2.75 6.98595 2.75 9.13695C2.75 11.3339 3.65 13.0279 4.938 14.4799C6.001 15.6759 7.287 16.6679 8.541 17.6339C8.839 17.8639 9.135 18.0929 9.426 18.3219C9.952 18.7369 10.421 19.0999 10.874 19.3649C11.326 19.6289 11.69 19.7499 12 19.7499C12.31 19.7499 12.674 19.6299 13.126 19.3649C13.579 19.0999 14.048 18.7369 14.574 18.3219C14.864 18.0919 15.161 17.8639 15.459 17.6349C16.713 16.6669 17.999 15.6759 19.062 14.4799C20.351 13.0279 21.25 11.3339 21.25 9.13695C21.25 6.98695 20.035 5.18195 18.376 4.42395C16.764 3.68695 14.598 3.88195 12.54 6.02095C12.47 6.09353 12.3862 6.15127 12.2934 6.19071C12.2006 6.23014 12.1008 6.25047 12 6.25047C11.8992 6.25047 11.7994 6.23014 11.7066 6.19071C11.6138 6.15127 11.53 6.09353 11.46 6.02095C9.402 3.88195 7.236 3.68695 5.624 4.42395ZM12 4.45995C9.688 2.38995 7.099 2.09995 5 3.05895C2.786 4.07395 1.25 6.42595 1.25 9.13795C1.25 11.8029 2.36 13.8369 3.817 15.4769C4.983 16.7899 6.41 17.8889 7.671 18.8589C7.957 19.0789 8.234 19.2929 8.497 19.5009C9.01 19.9049 9.56 20.3349 10.117 20.6609C10.674 20.9859 11.31 21.2509 12 21.2509C12.69 21.2509 13.326 20.9859 13.883 20.6609C14.441 20.3349 14.99 19.9049 15.503 19.5009C15.7769 19.2851 16.0522 19.0711 16.329 18.8589C17.589 17.8889 19.017 16.7889 20.183 15.4769C21.64 13.8369 22.75 11.8029 22.75 9.13795C22.75 6.42595 21.215 4.07395 19 3.06095C16.901 2.10095 14.312 2.39095 12 4.45995Z" fill="#100503"/>
<path fill-rule="evenodd" clip-rule="evenodd" d="M5.624 4.42395C3.965 5.18195 2.75 6.98595 2.75 9.13695C2.75 11.3339 3.65 13.0279 4.938 14.4799C6.001 15.6759 7.287 16.6679 8.541 17.6339C8.839 17.8639 9.135 18.0929 9.426 18.3219C9.952 18.7369 10.421 19.0999 10.874 19.3649C11.326 19.6289 11.69 19.7499 12 19.7499C12.31 19.7499 12.674 19.6299 13.126 19.3649C13.579 19.0999 14.048 18.7369 14.574 18.3219C14.864 18.0919 15.161 17.8639 15.459 17.6349C16.713 16.6669 17.999 15.6759 19.062 14.4799C20.351 13.0279 21.25 11.3339 21.25 9.13695C21.25 6.98695 20.035 5.18195 18.376 4.42395C16.764 3.68695 14.598 3.88195 12.54 6.02095C12.47 6.09353 12.3862 6.15127 12.2934 6.19071C12.2006 6.23014 12.1008 6.25047 12 6.25047C11.8992 6.25047 11.7994 6.23014 11.7066 6.19071C11.6138 6.15127 11.53 6.09353 11.46 6.02095C9.402 3.88195 7.236 3.68695 5.624 4.42395ZM12 4.45995C9.688 2.38995 7.099 2.09995 5 3.05895C2.786 4.07395 1.25 6.42595 1.25 9.13795C1.25 11.8029 2.36 13.8369 3.817 15.4769C4.983 16.7899 6.41 17.8889 7.671 18.8589C7.957 19.0789 8.234 19.2929 8.497 19.5009C9.01 19.9049 9.56 20.3349 10.117 20.6609C10.674 20.9859 11.31 21.2509 12 21.2509C12.69 21.2509 13.326 20.9859 13.883 20.6609C14.441 20.3349 14.99 19.9049 15.503 19.5009C15.7769 19.2851 16.0522 19.0711 16.329 18.8589C17.589 17.8889 19.017 16.7889 20.183 15.4769C21.64 13.8369 22.75 11.8029 22.75 9.13795C22.75 6.42595 21.215 4.07395 19 3.06095C16.901 2.10095 14.312 2.39095 12 4.45995Z" fill="#100503"/>
</svg>
