<svg width="32" height="33" viewBox="0 0 32 33" fill="none" xmlns="http://www.w3.org/2000/svg">
<path fill-rule="evenodd" clip-rule="evenodd" d="M7.49875 6.39868C5.28675 7.40934 3.66675 9.81468 3.66675 12.6827C3.66675 15.612 4.86675 17.8707 6.58408 19.8067C8.00142 21.4013 9.71608 22.724 11.3881 24.012C11.7854 24.3187 12.1801 24.624 12.5681 24.9293C13.2694 25.4827 13.8947 25.9667 14.4987 26.32C15.1014 26.672 15.5867 26.8333 16.0001 26.8333C16.4134 26.8333 16.8987 26.6733 17.5014 26.32C18.1054 25.9667 18.7307 25.4827 19.4321 24.9293C19.8187 24.6227 20.2147 24.3187 20.6121 24.0133C22.2841 22.7227 23.9987 21.4013 25.4161 19.8067C27.1347 17.8707 28.3334 15.612 28.3334 12.6827C28.3334 9.81601 26.7134 7.40934 24.5014 6.39868C22.3521 5.41601 19.4641 5.67601 16.7201 8.52801C16.6268 8.62479 16.515 8.70177 16.3913 8.75435C16.2675 8.80694 16.1345 8.83404 16.0001 8.83404C15.8657 8.83404 15.7326 8.80694 15.6089 8.75435C15.4852 8.70177 15.3734 8.62479 15.2801 8.52801C12.5361 5.67601 9.64808 5.41601 7.49875 6.39868ZM16.0001 6.44668C12.9174 3.68668 9.46542 3.30001 6.66675 4.57868C3.71475 5.93201 1.66675 9.06801 1.66675 12.684C1.66675 16.2373 3.14675 18.9493 5.08941 21.136C6.64408 22.8867 8.54675 24.352 10.2281 25.6453C10.6094 25.9387 10.9787 26.224 11.3294 26.5013C12.0134 27.04 12.7467 27.6133 13.4894 28.048C14.2321 28.4813 15.0801 28.8347 16.0001 28.8347C16.9201 28.8347 17.7681 28.4813 18.5107 28.048C19.2547 27.6133 19.9867 27.04 20.6707 26.5013C21.036 26.2136 21.4031 25.9282 21.7721 25.6453C23.4521 24.352 25.3561 22.8853 26.9107 21.136C28.8534 18.9493 30.3334 16.2373 30.3334 12.684C30.3334 9.06801 28.2867 5.93201 25.3334 4.58134C22.5347 3.30134 19.0827 3.68801 16.0001 6.44668Z" fill="#100503"/>
<path fill-rule="evenodd" clip-rule="evenodd" d="M7.49875 6.39868C5.28675 7.40934 3.66675 9.81468 3.66675 12.6827C3.66675 15.612 4.86675 17.8707 6.58408 19.8067C8.00142 21.4013 9.71608 22.724 11.3881 24.012C11.7854 24.3187 12.1801 24.624 12.5681 24.9293C13.2694 25.4827 13.8947 25.9667 14.4987 26.32C15.1014 26.672 15.5867 26.8333 16.0001 26.8333C16.4134 26.8333 16.8987 26.6733 17.5014 26.32C18.1054 25.9667 18.7307 25.4827 19.4321 24.9293C19.8187 24.6227 20.2147 24.3187 20.6121 24.0133C22.2841 22.7227 23.9987 21.4013 25.4161 19.8067C27.1347 17.8707 28.3334 15.612 28.3334 12.6827C28.3334 9.81601 26.7134 7.40934 24.5014 6.39868C22.3521 5.41601 19.4641 5.67601 16.7201 8.52801C16.6268 8.62479 16.515 8.70177 16.3913 8.75435C16.2675 8.80694 16.1345 8.83404 16.0001 8.83404C15.8657 8.83404 15.7326 8.80694 15.6089 8.75435C15.4852 8.70177 15.3734 8.62479 15.2801 8.52801C12.5361 5.67601 9.64808 5.41601 7.49875 6.39868ZM16.0001 6.44668C12.9174 3.68668 9.46542 3.30001 6.66675 4.57868C3.71475 5.93201 1.66675 9.06801 1.66675 12.684C1.66675 16.2373 3.14675 18.9493 5.08941 21.136C6.64408 22.8867 8.54675 24.352 10.2281 25.6453C10.6094 25.9387 10.9787 26.224 11.3294 26.5013C12.0134 27.04 12.7467 27.6133 13.4894 28.048C14.2321 28.4813 15.0801 28.8347 16.0001 28.8347C16.9201 28.8347 17.7681 28.4813 18.5107 28.048C19.2547 27.6133 19.9867 27.04 20.6707 26.5013C21.036 26.2136 21.4031 25.9282 21.7721 25.6453C23.4521 24.352 25.3561 22.8853 26.9107 21.136C28.8534 18.9493 30.3334 16.2373 30.3334 12.684C30.3334 9.06801 28.2867 5.93201 25.3334 4.58134C22.5347 3.30134 19.0827 3.68801 16.0001 6.44668Z" fill="#100503"/>
</svg>
