<svg width="159" height="30" viewBox="0 0 159 30" fill="none" xmlns="http://www.w3.org/2000/svg">
<path d="M17.5407 3.52V20.88H19.2207V22H11.6607V20.88H13.3407V14.356H6.34073V20.88H8.02073V22H0.460732V20.88H2.14073V3.52H0.460732V2.4H8.02073V3.52H6.34073V13.096H13.3407V3.52H11.6607V2.4H19.2207V3.52H17.5407ZM25.0327 20.292C23.67 18.8547 22.9887 17.0907 22.9887 15C22.9887 12.9093 23.67 11.1547 25.0327 9.736C26.414 8.29867 28.206 7.58 30.4087 7.58C32.6114 7.58 34.394 8.29867 35.7567 9.736C37.138 11.1547 37.8287 12.9093 37.8287 15C37.8287 17.0907 37.138 18.8547 35.7567 20.292C34.394 21.7107 32.6114 22.42 30.4087 22.42C28.206 22.42 26.414 21.7107 25.0327 20.292ZM28.1127 10.52C27.59 11.6773 27.3287 13.1707 27.3287 15C27.3287 16.8293 27.59 18.332 28.1127 19.508C28.6354 20.6653 29.41 21.244 30.4367 21.244C31.4634 21.244 32.238 20.6653 32.7607 19.508C33.2834 18.332 33.5447 16.8293 33.5447 15C33.5447 13.1707 33.2834 11.6773 32.7607 10.52C32.238 9.344 31.4634 8.756 30.4367 8.756C29.41 8.756 28.6354 9.344 28.1127 10.52ZM39.6531 2.428C40.1944 1.868 40.8757 1.42 41.6971 1.084C42.5371 0.747999 43.3584 0.579999 44.1611 0.579999C44.9824 0.579999 45.6544 0.747999 46.1771 1.084C46.6997 1.40133 46.9611 1.80267 46.9611 2.288V18.892C46.9611 19.396 47.0824 19.7973 47.3251 20.096C47.5677 20.376 47.9411 20.516 48.4451 20.516C48.9491 20.516 49.5277 20.2453 50.1811 19.704L50.6851 20.376C49.1917 21.7387 47.6984 22.42 46.2051 22.42C43.9091 22.42 42.7611 21.048 42.7611 18.304V1.924C41.7344 2.18533 40.9504 2.64267 40.4091 3.296L39.6531 2.428ZM50.1257 2.428C50.6671 1.868 51.3484 1.42 52.1697 1.084C53.0097 0.747999 53.8311 0.579999 54.6337 0.579999C55.4551 0.579999 56.1271 0.747999 56.6497 1.084C57.1724 1.40133 57.4337 1.80267 57.4337 2.288V18.892C57.4337 19.396 57.5551 19.7973 57.7977 20.096C58.0404 20.376 58.4137 20.516 58.9177 20.516C59.4217 20.516 60.0004 20.2453 60.6537 19.704L61.1577 20.376C59.6644 21.7387 58.1711 22.42 56.6777 22.42C54.3817 22.42 53.2337 21.048 53.2337 18.304V1.924C52.2071 2.18533 51.4231 2.64267 50.8817 3.296L50.1257 2.428ZM60.9624 9.428C61.5037 8.868 62.1851 8.42 63.0064 8.084C63.8464 7.748 64.6677 7.58 65.4704 7.58C66.2917 7.58 66.9637 7.748 67.4864 8.084C68.0091 8.40133 68.2704 8.80267 68.2704 9.288V17.772C68.2704 18.3693 68.4571 18.8267 68.8304 19.144C69.2037 19.4427 69.6704 19.592 70.2304 19.592C71.4251 19.592 72.4424 19.0787 73.2824 18.052C74.1411 17.0253 74.5704 15.7093 74.5704 14.104C74.5704 13.208 74.3931 12.2653 74.0384 11.276C73.7024 11.5 73.2731 11.612 72.7504 11.612C72.2277 11.612 71.7517 11.4067 71.3224 10.996C70.9117 10.5667 70.7064 10.0533 70.7064 9.456C70.7064 8.85867 70.9117 8.35467 71.3224 7.944C71.7517 7.51467 72.2837 7.3 72.9184 7.3C73.5531 7.3 74.0944 7.54267 74.5424 8.028C75.0091 8.49467 75.3451 9.12 75.5504 9.904C75.8864 11.2667 76.0544 12.7787 76.0544 14.44C76.0544 16.0827 75.8584 17.7347 75.4664 19.396C75.0931 21.0573 74.5891 22.4853 73.9544 23.68C73.3384 24.8747 72.6384 25.9107 71.8544 26.788C70.2491 28.5427 68.6157 29.42 66.9544 29.42C66.5064 29.42 66.1331 29.3173 65.8344 29.112C65.5544 28.9253 65.2277 28.5707 64.8544 28.048L63.3984 26.032L64.1264 25.276C65.0224 25.4253 65.8064 25.5 66.4784 25.5C68.5691 25.5 70.2771 24.8373 71.6024 23.512C72.9277 22.1867 73.9731 20.0307 74.7384 17.044C73.5811 20.2547 71.4531 21.86 68.3544 21.86C67.1597 21.86 66.1424 21.4587 65.3024 20.656C64.4811 19.8347 64.0704 18.6773 64.0704 17.184V8.924C63.0437 9.18533 62.2597 9.64267 61.7184 10.296L60.9624 9.428ZM79.4971 3.52V2.4H85.6851L90.7811 19.172L95.5971 2.4H101.953V3.52H100.049L101.057 20.88H102.737V22H95.2331V20.88H96.8291L95.9611 7.02L91.6491 22H87.4211L82.8571 7.048L82.0731 20.88H83.6971V22H78.7131V20.88H80.3931L81.3731 3.52H79.4971ZM107.447 20.292C106.084 18.8547 105.403 17.0907 105.403 15C105.403 12.9093 106.084 11.1547 107.447 9.736C108.828 8.29867 110.62 7.58 112.823 7.58C115.025 7.58 116.808 8.29867 118.171 9.736C119.552 11.1547 120.243 12.9093 120.243 15C120.243 17.0907 119.552 18.8547 118.171 20.292C116.808 21.7107 115.025 22.42 112.823 22.42C110.62 22.42 108.828 21.7107 107.447 20.292ZM110.527 10.52C110.004 11.6773 109.743 13.1707 109.743 15C109.743 16.8293 110.004 18.332 110.527 19.508C111.049 20.6653 111.824 21.244 112.851 21.244C113.877 21.244 114.652 20.6653 115.175 19.508C115.697 18.332 115.959 16.8293 115.959 15C115.959 13.1707 115.697 11.6773 115.175 10.52C114.652 9.344 113.877 8.756 112.851 8.756C111.824 8.756 111.049 9.344 110.527 10.52ZM122.067 2.428C122.608 1.868 123.29 1.42 124.111 1.084C124.951 0.747999 125.772 0.579999 126.575 0.579999C127.396 0.579999 128.068 0.747999 128.591 1.084C129.114 1.40133 129.375 1.80267 129.375 2.288V18.892C129.375 19.396 129.496 19.7973 129.739 20.096C129.982 20.376 130.355 20.516 130.859 20.516C131.363 20.516 131.942 20.2453 132.595 19.704L133.099 20.376C131.606 21.7387 130.112 22.42 128.619 22.42C126.323 22.42 125.175 21.048 125.175 18.304V1.924C124.148 2.18533 123.364 2.64267 122.823 3.296L122.067 2.428ZM132.54 2.428C133.081 1.868 133.762 1.42 134.584 1.084C135.424 0.747999 136.245 0.579999 137.048 0.579999C137.869 0.579999 138.541 0.747999 139.064 1.084C139.586 1.40133 139.848 1.80267 139.848 2.288V18.892C139.848 19.396 139.969 19.7973 140.212 20.096C140.454 20.376 140.828 20.516 141.332 20.516C141.836 20.516 142.414 20.2453 143.068 19.704L143.572 20.376C142.078 21.7387 140.585 22.42 139.092 22.42C136.796 22.42 135.648 21.048 135.648 18.304V1.924C134.621 2.18533 133.837 2.64267 133.296 3.296L132.54 2.428ZM143.376 9.428C143.918 8.868 144.599 8.42 145.42 8.084C146.26 7.748 147.082 7.58 147.884 7.58C148.706 7.58 149.378 7.748 149.9 8.084C150.423 8.40133 150.684 8.80267 150.684 9.288V17.772C150.684 18.3693 150.871 18.8267 151.244 19.144C151.618 19.4427 152.084 19.592 152.644 19.592C153.839 19.592 154.856 19.0787 155.696 18.052C156.555 17.0253 156.984 15.7093 156.984 14.104C156.984 13.208 156.807 12.2653 156.452 11.276C156.116 11.5 155.687 11.612 155.164 11.612C154.642 11.612 154.166 11.4067 153.736 10.996C153.326 10.5667 153.12 10.0533 153.12 9.456C153.12 8.85867 153.326 8.35467 153.736 7.944C154.166 7.51467 154.698 7.3 155.332 7.3C155.967 7.3 156.508 7.54267 156.956 8.028C157.423 8.49467 157.759 9.12 157.964 9.904C158.3 11.2667 158.468 12.7787 158.468 14.44C158.468 16.0827 158.272 17.7347 157.88 19.396C157.507 21.0573 157.003 22.4853 156.368 23.68C155.752 24.8747 155.052 25.9107 154.268 26.788C152.663 28.5427 151.03 29.42 149.368 29.42C148.92 29.42 148.547 29.3173 148.248 29.112C147.968 28.9253 147.642 28.5707 147.268 28.048L145.812 26.032L146.54 25.276C147.436 25.4253 148.22 25.5 148.892 25.5C150.983 25.5 152.691 24.8373 154.016 23.512C155.342 22.1867 156.387 20.0307 157.152 17.044C155.995 20.2547 153.867 21.86 150.768 21.86C149.574 21.86 148.556 21.4587 147.716 20.656C146.895 19.8347 146.484 18.6773 146.484 17.184V8.924C145.458 9.18533 144.674 9.64267 144.132 10.296L143.376 9.428Z" fill="#6B5034"/>
</svg>
