<svg width="215" height="45" viewBox="0 0 215 45" fill="none" xmlns="http://www.w3.org/2000/svg">
<path d="M36.6506 12.88V32.72H38.5706V34H29.9306V32.72H31.8506V25.264H23.8506V32.72H25.7706V34H17.1306V32.72H19.0506V12.88H17.1306V11.6H25.7706V12.88H23.8506V23.824H31.8506V12.88H29.9306V11.6H38.5706V12.88H36.6506ZM45.2129 32.048C43.6555 30.4053 42.8769 28.3893 42.8769 26C42.8769 23.6107 43.6555 21.6053 45.2129 19.984C46.7915 18.3413 48.8395 17.52 51.3569 17.52C53.8742 17.52 55.9115 18.3413 57.4689 19.984C59.0475 21.6053 59.8369 23.6107 59.8369 26C59.8369 28.3893 59.0475 30.4053 57.4689 32.048C55.9115 33.6693 53.8742 34.48 51.3569 34.48C48.8395 34.48 46.7915 33.6693 45.2129 32.048ZM48.7329 20.88C48.1355 22.2027 47.8369 23.9093 47.8369 26C47.8369 28.0907 48.1355 29.808 48.7329 31.152C49.3302 32.4747 50.2155 33.136 51.3889 33.136C52.5622 33.136 53.4475 32.4747 54.0449 31.152C54.6422 29.808 54.9409 28.0907 54.9409 26C54.9409 23.9093 54.6422 22.2027 54.0449 20.88C53.4475 19.536 52.5622 18.864 51.3889 18.864C50.2155 18.864 49.3302 19.536 48.7329 20.88ZM61.9219 11.632C62.5405 10.992 63.3192 10.48 64.2579 10.096C65.2179 9.712 66.1565 9.52 67.0739 9.52C68.0125 9.52 68.7805 9.712 69.3779 10.096C69.9752 10.4587 70.2739 10.9173 70.2739 11.472V30.448C70.2739 31.024 70.4125 31.4827 70.6899 31.824C70.9672 32.144 71.3939 32.304 71.9699 32.304C72.5459 32.304 73.2072 31.9947 73.9539 31.376L74.5299 32.144C72.8232 33.7013 71.1165 34.48 69.4099 34.48C66.7859 34.48 65.4739 32.912 65.4739 29.776V11.056C64.3005 11.3547 63.4045 11.8773 62.7859 12.624L61.9219 11.632ZM73.8906 11.632C74.5093 10.992 75.288 10.48 76.2266 10.096C77.1866 9.712 78.1253 9.52 79.0426 9.52C79.9813 9.52 80.7493 9.712 81.3466 10.096C81.944 10.4587 82.2426 10.9173 82.2426 11.472V30.448C82.2426 31.024 82.3813 31.4827 82.6586 31.824C82.936 32.144 83.3626 32.304 83.9386 32.304C84.5146 32.304 85.176 31.9947 85.9226 31.376L86.4986 32.144C84.792 33.7013 83.0853 34.48 81.3786 34.48C78.7546 34.48 77.4426 32.912 77.4426 29.776V11.056C76.2693 11.3547 75.3733 11.8773 74.7546 12.624L73.8906 11.632ZM86.2754 19.632C86.894 18.992 87.6727 18.48 88.6114 18.096C89.5714 17.712 90.51 17.52 91.4274 17.52C92.366 17.52 93.134 17.712 93.7314 18.096C94.3287 18.4587 94.6274 18.9173 94.6274 19.472V29.168C94.6274 29.8507 94.8407 30.3733 95.2674 30.736C95.694 31.0773 96.2274 31.248 96.8674 31.248C98.2327 31.248 99.3954 30.6613 100.355 29.488C101.337 28.3147 101.827 26.8107 101.827 24.976C101.827 23.952 101.625 22.8747 101.219 21.744C100.835 22 100.345 22.128 99.7474 22.128C99.15 22.128 98.606 21.8933 98.1154 21.424C97.646 20.9333 97.4114 20.3467 97.4114 19.664C97.4114 18.9813 97.646 18.4053 98.1154 17.936C98.606 17.4453 99.214 17.2 99.9394 17.2C100.665 17.2 101.283 17.4773 101.795 18.032C102.329 18.5653 102.713 19.28 102.947 20.176C103.331 21.7333 103.523 23.4613 103.523 25.36C103.523 27.2373 103.299 29.1253 102.851 31.024C102.425 32.9227 101.849 34.5547 101.123 35.92C100.419 37.2853 99.6194 38.4693 98.7234 39.472C96.8887 41.4773 95.022 42.48 93.1234 42.48C92.6114 42.48 92.1847 42.3627 91.8434 42.128C91.5234 41.9147 91.15 41.5093 90.7234 40.912L89.0594 38.608L89.8914 37.744C90.9154 37.9147 91.8114 38 92.5794 38C94.9687 38 96.9207 37.2427 98.4354 35.728C99.95 34.2133 101.145 31.7493 102.019 28.336C100.697 32.0053 98.2647 33.84 94.7234 33.84C93.358 33.84 92.1954 33.3813 91.2354 32.464C90.2967 31.5253 89.8274 30.2027 89.8274 28.496V19.056C88.654 19.3547 87.758 19.8773 87.1394 20.624L86.2754 19.632ZM107.458 12.88V11.6H114.53L120.354 30.768L125.858 11.6H133.122V12.88H130.946L132.098 32.72H134.018V34H125.442V32.72H127.266L126.274 16.88L121.346 34H116.514L111.298 16.912L110.402 32.72H112.258V34H106.562V32.72H108.482L109.602 12.88H107.458ZM139.4 32.048C137.843 30.4053 137.064 28.3893 137.064 26C137.064 23.6107 137.843 21.6053 139.4 19.984C140.979 18.3413 143.027 17.52 145.544 17.52C148.062 17.52 150.099 18.3413 151.656 19.984C153.235 21.6053 154.024 23.6107 154.024 26C154.024 28.3893 153.235 30.4053 151.656 32.048C150.099 33.6693 148.062 34.48 145.544 34.48C143.027 34.48 140.979 33.6693 139.4 32.048ZM142.92 20.88C142.323 22.2027 142.024 23.9093 142.024 26C142.024 28.0907 142.323 29.808 142.92 31.152C143.518 32.4747 144.403 33.136 145.576 33.136C146.75 33.136 147.635 32.4747 148.232 31.152C148.83 29.808 149.128 28.0907 149.128 26C149.128 23.9093 148.83 22.2027 148.232 20.88C147.635 19.536 146.75 18.864 145.576 18.864C144.403 18.864 143.518 19.536 142.92 20.88ZM156.109 11.632C156.728 10.992 157.507 10.48 158.445 10.096C159.405 9.712 160.344 9.52 161.261 9.52C162.2 9.52 162.968 9.712 163.565 10.096C164.163 10.4587 164.461 10.9173 164.461 11.472V30.448C164.461 31.024 164.6 31.4827 164.877 31.824C165.155 32.144 165.581 32.304 166.157 32.304C166.733 32.304 167.395 31.9947 168.141 31.376L168.717 32.144C167.011 33.7013 165.304 34.48 163.597 34.48C160.973 34.48 159.661 32.912 159.661 29.776V11.056C158.488 11.3547 157.592 11.8773 156.973 12.624L156.109 11.632ZM168.078 11.632C168.697 10.992 169.475 10.48 170.414 10.096C171.374 9.712 172.313 9.52 173.23 9.52C174.169 9.52 174.937 9.712 175.534 10.096C176.131 10.4587 176.43 10.9173 176.43 11.472V30.448C176.43 31.024 176.569 31.4827 176.846 31.824C177.123 32.144 177.55 32.304 178.126 32.304C178.702 32.304 179.363 31.9947 180.11 31.376L180.686 32.144C178.979 33.7013 177.273 34.48 175.566 34.48C172.942 34.48 171.63 32.912 171.63 29.776V11.056C170.457 11.3547 169.561 11.8773 168.942 12.624L168.078 11.632ZM180.463 19.632C181.082 18.992 181.86 18.48 182.799 18.096C183.759 17.712 184.698 17.52 185.615 17.52C186.554 17.52 187.322 17.712 187.919 18.096C188.516 18.4587 188.815 18.9173 188.815 19.472V29.168C188.815 29.8507 189.028 30.3733 189.455 30.736C189.882 31.0773 190.415 31.248 191.055 31.248C192.42 31.248 193.583 30.6613 194.543 29.488C195.524 28.3147 196.015 26.8107 196.015 24.976C196.015 23.952 195.812 22.8747 195.407 21.744C195.023 22 194.532 22.128 193.935 22.128C193.338 22.128 192.794 21.8933 192.303 21.424C191.834 20.9333 191.599 20.3467 191.599 19.664C191.599 18.9813 191.834 18.4053 192.303 17.936C192.794 17.4453 193.402 17.2 194.127 17.2C194.852 17.2 195.471 17.4773 195.983 18.032C196.516 18.5653 196.9 19.28 197.135 20.176C197.519 21.7333 197.711 23.4613 197.711 25.36C197.711 27.2373 197.487 29.1253 197.039 31.024C196.612 32.9227 196.036 34.5547 195.311 35.92C194.607 37.2853 193.807 38.4693 192.911 39.472C191.076 41.4773 189.21 42.48 187.311 42.48C186.799 42.48 186.372 42.3627 186.031 42.128C185.711 41.9147 185.338 41.5093 184.911 40.912L183.247 38.608L184.079 37.744C185.103 37.9147 185.999 38 186.767 38C189.156 38 191.108 37.2427 192.623 35.728C194.138 34.2133 195.332 31.7493 196.207 28.336C194.884 32.0053 192.452 33.84 188.911 33.84C187.546 33.84 186.383 33.3813 185.423 32.464C184.484 31.5253 184.015 30.2027 184.015 28.496V19.056C182.842 19.3547 181.946 19.8773 181.327 20.624L180.463 19.632Z" fill="#E85A50"/>
</svg>
