<svg width="159" height="30" viewBox="0 0 159 30" fill="none" xmlns="http://www.w3.org/2000/svg">
<path d="M17.5068 3.52V20.88H19.1868V22H11.6268V20.88H13.3068V14.356H6.3068V20.88H7.9868V22H0.426797V20.88H2.1068V3.52H0.426797V2.4H7.9868V3.52H6.3068V13.096H13.3068V3.52H11.6268V2.4H19.1868V3.52H17.5068ZM24.9988 20.292C23.6361 18.8547 22.9548 17.0907 22.9548 15C22.9548 12.9093 23.6361 11.1547 24.9988 9.736C26.3801 8.29867 28.1721 7.58 30.3748 7.58C32.5774 7.58 34.3601 8.29867 35.7228 9.736C37.1041 11.1547 37.7948 12.9093 37.7948 15C37.7948 17.0907 37.1041 18.8547 35.7228 20.292C34.3601 21.7107 32.5774 22.42 30.3748 22.42C28.1721 22.42 26.3801 21.7107 24.9988 20.292ZM28.0788 10.52C27.5561 11.6773 27.2948 13.1707 27.2948 15C27.2948 16.8293 27.5561 18.332 28.0788 19.508C28.6014 20.6653 29.3761 21.244 30.4028 21.244C31.4294 21.244 32.2041 20.6653 32.7268 19.508C33.2494 18.332 33.5108 16.8293 33.5108 15C33.5108 13.1707 33.2494 11.6773 32.7268 10.52C32.2041 9.344 31.4294 8.756 30.4028 8.756C29.3761 8.756 28.6014 9.344 28.0788 10.52ZM39.6191 2.428C40.1605 1.868 40.8418 1.42 41.6631 1.084C42.5031 0.747999 43.3245 0.579999 44.1271 0.579999C44.9485 0.579999 45.6205 0.747999 46.1431 1.084C46.6658 1.40133 46.9271 1.80267 46.9271 2.288V18.892C46.9271 19.396 47.0485 19.7973 47.2911 20.096C47.5338 20.376 47.9071 20.516 48.4111 20.516C48.9151 20.516 49.4938 20.2453 50.1471 19.704L50.6511 20.376C49.1578 21.7387 47.6645 22.42 46.1711 22.42C43.8751 22.42 42.7271 21.048 42.7271 18.304V1.924C41.7005 2.18533 40.9165 2.64267 40.3751 3.296L39.6191 2.428ZM50.0918 2.428C50.6331 1.868 51.3145 1.42 52.1358 1.084C52.9758 0.747999 53.7971 0.579999 54.5998 0.579999C55.4211 0.579999 56.0931 0.747999 56.6158 1.084C57.1385 1.40133 57.3998 1.80267 57.3998 2.288V18.892C57.3998 19.396 57.5211 19.7973 57.7638 20.096C58.0065 20.376 58.3798 20.516 58.8838 20.516C59.3878 20.516 59.9665 20.2453 60.6198 19.704L61.1238 20.376C59.6305 21.7387 58.1371 22.42 56.6438 22.42C54.3478 22.42 53.1998 21.048 53.1998 18.304V1.924C52.1731 2.18533 51.3891 2.64267 50.8478 3.296L50.0918 2.428ZM60.9285 9.428C61.4698 8.868 62.1511 8.42 62.9725 8.084C63.8125 7.748 64.6338 7.58 65.4365 7.58C66.2578 7.58 66.9298 7.748 67.4525 8.084C67.9751 8.40133 68.2365 8.80267 68.2365 9.288V17.772C68.2365 18.3693 68.4231 18.8267 68.7965 19.144C69.1698 19.4427 69.6365 19.592 70.1965 19.592C71.3911 19.592 72.4085 19.0787 73.2485 18.052C74.1071 17.0253 74.5365 15.7093 74.5365 14.104C74.5365 13.208 74.3591 12.2653 74.0045 11.276C73.6685 11.5 73.2391 11.612 72.7165 11.612C72.1938 11.612 71.7178 11.4067 71.2885 10.996C70.8778 10.5667 70.6725 10.0533 70.6725 9.456C70.6725 8.85867 70.8778 8.35467 71.2885 7.944C71.7178 7.51467 72.2498 7.3 72.8845 7.3C73.5191 7.3 74.0605 7.54267 74.5085 8.028C74.9751 8.49467 75.3111 9.12 75.5165 9.904C75.8525 11.2667 76.0205 12.7787 76.0205 14.44C76.0205 16.0827 75.8245 17.7347 75.4325 19.396C75.0591 21.0573 74.5551 22.4853 73.9205 23.68C73.3045 24.8747 72.6045 25.9107 71.8205 26.788C70.2151 28.5427 68.5818 29.42 66.9205 29.42C66.4725 29.42 66.0991 29.3173 65.8005 29.112C65.5205 28.9253 65.1938 28.5707 64.8205 28.048L63.3645 26.032L64.0925 25.276C64.9885 25.4253 65.7725 25.5 66.4445 25.5C68.5351 25.5 70.2431 24.8373 71.5685 23.512C72.8938 22.1867 73.9391 20.0307 74.7045 17.044C73.5471 20.2547 71.4191 21.86 68.3205 21.86C67.1258 21.86 66.1085 21.4587 65.2685 20.656C64.4471 19.8347 64.0365 18.6773 64.0365 17.184V8.924C63.0098 9.18533 62.2258 9.64267 61.6845 10.296L60.9285 9.428ZM79.4631 3.52V2.4H85.6511L90.7471 19.172L95.5631 2.4H101.919V3.52H100.015L101.023 20.88H102.703V22H95.1991V20.88H96.7951L95.9271 7.02L91.6151 22H87.3871L82.8231 7.048L82.0391 20.88H83.6631V22H78.6791V20.88H80.3591L81.3391 3.52H79.4631ZM107.413 20.292C106.05 18.8547 105.369 17.0907 105.369 15C105.369 12.9093 106.05 11.1547 107.413 9.736C108.794 8.29867 110.586 7.58 112.789 7.58C114.991 7.58 116.774 8.29867 118.137 9.736C119.518 11.1547 120.209 12.9093 120.209 15C120.209 17.0907 119.518 18.8547 118.137 20.292C116.774 21.7107 114.991 22.42 112.789 22.42C110.586 22.42 108.794 21.7107 107.413 20.292ZM110.493 10.52C109.97 11.6773 109.709 13.1707 109.709 15C109.709 16.8293 109.97 18.332 110.493 19.508C111.015 20.6653 111.79 21.244 112.817 21.244C113.843 21.244 114.618 20.6653 115.141 19.508C115.663 18.332 115.925 16.8293 115.925 15C115.925 13.1707 115.663 11.6773 115.141 10.52C114.618 9.344 113.843 8.756 112.817 8.756C111.79 8.756 111.015 9.344 110.493 10.52ZM122.033 2.428C122.575 1.868 123.256 1.42 124.077 1.084C124.917 0.747999 125.739 0.579999 126.541 0.579999C127.363 0.579999 128.035 0.747999 128.557 1.084C129.08 1.40133 129.341 1.80267 129.341 2.288V18.892C129.341 19.396 129.463 19.7973 129.705 20.096C129.948 20.376 130.321 20.516 130.825 20.516C131.329 20.516 131.908 20.2453 132.561 19.704L133.065 20.376C131.572 21.7387 130.079 22.42 128.585 22.42C126.289 22.42 125.141 21.048 125.141 18.304V1.924C124.115 2.18533 123.331 2.64267 122.789 3.296L122.033 2.428ZM132.506 2.428C133.047 1.868 133.729 1.42 134.55 1.084C135.39 0.747999 136.211 0.579999 137.014 0.579999C137.835 0.579999 138.507 0.747999 139.03 1.084C139.553 1.40133 139.814 1.80267 139.814 2.288V18.892C139.814 19.396 139.935 19.7973 140.178 20.096C140.421 20.376 140.794 20.516 141.298 20.516C141.802 20.516 142.381 20.2453 143.034 19.704L143.538 20.376C142.045 21.7387 140.551 22.42 139.058 22.42C136.762 22.42 135.614 21.048 135.614 18.304V1.924C134.587 2.18533 133.803 2.64267 133.262 3.296L132.506 2.428ZM143.343 9.428C143.884 8.868 144.565 8.42 145.387 8.084C146.227 7.748 147.048 7.58 147.851 7.58C148.672 7.58 149.344 7.748 149.867 8.084C150.389 8.40133 150.651 8.80267 150.651 9.288V17.772C150.651 18.3693 150.837 18.8267 151.211 19.144C151.584 19.4427 152.051 19.592 152.611 19.592C153.805 19.592 154.823 19.0787 155.663 18.052C156.521 17.0253 156.951 15.7093 156.951 14.104C156.951 13.208 156.773 12.2653 156.419 11.276C156.083 11.5 155.653 11.612 155.131 11.612C154.608 11.612 154.132 11.4067 153.703 10.996C153.292 10.5667 153.087 10.0533 153.087 9.456C153.087 8.85867 153.292 8.35467 153.703 7.944C154.132 7.51467 154.664 7.3 155.299 7.3C155.933 7.3 156.475 7.54267 156.923 8.028C157.389 8.49467 157.725 9.12 157.931 9.904C158.267 11.2667 158.435 12.7787 158.435 14.44C158.435 16.0827 158.239 17.7347 157.847 19.396C157.473 21.0573 156.969 22.4853 156.335 23.68C155.719 24.8747 155.019 25.9107 154.235 26.788C152.629 28.5427 150.996 29.42 149.335 29.42C148.887 29.42 148.513 29.3173 148.215 29.112C147.935 28.9253 147.608 28.5707 147.235 28.048L145.779 26.032L146.507 25.276C147.403 25.4253 148.187 25.5 148.859 25.5C150.949 25.5 152.657 24.8373 153.983 23.512C155.308 22.1867 156.353 20.0307 157.119 17.044C155.961 20.2547 153.833 21.86 150.735 21.86C149.54 21.86 148.523 21.4587 147.683 20.656C146.861 19.8347 146.451 18.6773 146.451 17.184V8.924C145.424 9.18533 144.64 9.64267 144.099 10.296L143.343 9.428Z" fill="#E85A50"/>
</svg>
