<svg width="91" height="18" viewBox="0 0 91 18" fill="none" xmlns="http://www.w3.org/2000/svg">
<path d="M9.88 2.44V12.36H10.84V13H6.52V12.36H7.48V8.632H3.48V12.36H4.44V13H0.12V12.36H1.08V2.44H0.12V1.8H4.44V2.44H3.48V7.912H7.48V2.44H6.52V1.8H10.84V2.44H9.88ZM14.1611 12.024C13.3825 11.2027 12.9931 10.1947 12.9931 9C12.9931 7.80533 13.3825 6.80267 14.1611 5.992C14.9505 5.17067 15.9745 4.76 17.2331 4.76C18.4918 4.76 19.5105 5.17067 20.2891 5.992C21.0785 6.80267 21.4731 7.80533 21.4731 9C21.4731 10.1947 21.0785 11.2027 20.2891 12.024C19.5105 12.8347 18.4918 13.24 17.2331 13.24C15.9745 13.24 14.9505 12.8347 14.1611 12.024ZM15.9211 6.44C15.6225 7.10133 15.4731 7.95467 15.4731 9C15.4731 10.0453 15.6225 10.904 15.9211 11.576C16.2198 12.2373 16.6625 12.568 17.2491 12.568C17.8358 12.568 18.2785 12.2373 18.5771 11.576C18.8758 10.904 19.0251 10.0453 19.0251 9C19.0251 7.95467 18.8758 7.10133 18.5771 6.44C18.2785 5.768 17.8358 5.432 17.2491 5.432C16.6625 5.432 16.2198 5.768 15.9211 6.44ZM22.5156 1.816C22.825 1.496 23.2143 1.24 23.6836 1.048C24.1636 0.855999 24.633 0.759999 25.0916 0.759999C25.561 0.759999 25.945 0.855999 26.2436 1.048C26.5423 1.22933 26.6916 1.45867 26.6916 1.736V11.224C26.6916 11.512 26.761 11.7413 26.8996 11.912C27.0383 12.072 27.2516 12.152 27.5396 12.152C27.8276 12.152 28.1583 11.9973 28.5316 11.688L28.8196 12.072C27.9663 12.8507 27.113 13.24 26.2596 13.24C24.9476 13.24 24.2916 12.456 24.2916 10.888V1.528C23.705 1.67733 23.257 1.93867 22.9476 2.312L22.5156 1.816ZM28.5 1.816C28.8093 1.496 29.1987 1.24 29.668 1.048C30.148 0.855999 30.6173 0.759999 31.076 0.759999C31.5453 0.759999 31.9293 0.855999 32.228 1.048C32.5267 1.22933 32.676 1.45867 32.676 1.736V11.224C32.676 11.512 32.7453 11.7413 32.884 11.912C33.0227 12.072 33.236 12.152 33.524 12.152C33.812 12.152 34.1427 11.9973 34.516 11.688L34.804 12.072C33.9507 12.8507 33.0973 13.24 32.244 13.24C30.932 13.24 30.276 12.456 30.276 10.888V1.528C29.6893 1.67733 29.2413 1.93867 28.932 2.312L28.5 1.816ZM34.6924 5.816C35.0017 5.496 35.391 5.24 35.8604 5.048C36.3404 4.856 36.8097 4.76 37.2684 4.76C37.7377 4.76 38.1217 4.856 38.4204 5.048C38.719 5.22933 38.8684 5.45867 38.8684 5.736V10.584C38.8684 10.9253 38.975 11.1867 39.1884 11.368C39.4017 11.5387 39.6684 11.624 39.9884 11.624C40.671 11.624 41.2524 11.3307 41.7324 10.744C42.223 10.1573 42.4684 9.40533 42.4684 8.488C42.4684 7.976 42.367 7.43733 42.1644 6.872C41.9724 7 41.727 7.064 41.4284 7.064C41.1297 7.064 40.8577 6.94667 40.6124 6.712C40.3777 6.46667 40.2604 6.17333 40.2604 5.832C40.2604 5.49067 40.3777 5.20267 40.6124 4.968C40.8577 4.72267 41.1617 4.6 41.5244 4.6C41.887 4.6 42.1964 4.73867 42.4524 5.016C42.719 5.28267 42.911 5.64 43.0284 6.088C43.2204 6.86667 43.3164 7.73067 43.3164 8.68C43.3164 9.61867 43.2044 10.5627 42.9804 11.512C42.767 12.4613 42.479 13.2773 42.1164 13.96C41.7644 14.6427 41.3644 15.2347 40.9164 15.736C39.999 16.7387 39.0657 17.24 38.1164 17.24C37.8604 17.24 37.647 17.1813 37.4764 17.064C37.3164 16.9573 37.1297 16.7547 36.9164 16.456L36.0844 15.304L36.5004 14.872C37.0124 14.9573 37.4604 15 37.8444 15C39.039 15 40.015 14.6213 40.7724 13.864C41.5297 13.1067 42.127 11.8747 42.5644 10.168C41.903 12.0027 40.687 12.92 38.9164 12.92C38.2337 12.92 37.6524 12.6907 37.1724 12.232C36.703 11.7627 36.4684 11.1013 36.4684 10.248V5.528C35.8817 5.67733 35.4337 5.93867 35.1244 6.312L34.6924 5.816ZM45.2836 2.44V1.8H48.8196L51.7316 11.384L54.4836 1.8H58.1156V2.44H57.0276L57.6036 12.36H58.5636V13H54.2756V12.36H55.1876L54.6916 4.44L52.2276 13H49.8116L47.2036 4.456L46.7556 12.36H47.6836V13H44.8356V12.36H45.7956L46.3556 2.44H45.2836ZM61.2549 12.024C60.4762 11.2027 60.0869 10.1947 60.0869 9C60.0869 7.80533 60.4762 6.80267 61.2549 5.992C62.0442 5.17067 63.0682 4.76 64.3269 4.76C65.5855 4.76 66.6042 5.17067 67.3829 5.992C68.1722 6.80267 68.5669 7.80533 68.5669 9C68.5669 10.1947 68.1722 11.2027 67.3829 12.024C66.6042 12.8347 65.5855 13.24 64.3269 13.24C63.0682 13.24 62.0442 12.8347 61.2549 12.024ZM63.0149 6.44C62.7162 7.10133 62.5669 7.95467 62.5669 9C62.5669 10.0453 62.7162 10.904 63.0149 11.576C63.3135 12.2373 63.7562 12.568 64.3429 12.568C64.9295 12.568 65.3722 12.2373 65.6709 11.576C65.9695 10.904 66.1189 10.0453 66.1189 9C66.1189 7.95467 65.9695 7.10133 65.6709 6.44C65.3722 5.768 64.9295 5.432 64.3429 5.432C63.7562 5.432 63.3135 5.768 63.0149 6.44ZM69.6094 1.816C69.9187 1.496 70.308 1.24 70.7774 1.048C71.2574 0.855999 71.7267 0.759999 72.1854 0.759999C72.6547 0.759999 73.0387 0.855999 73.3374 1.048C73.636 1.22933 73.7854 1.45867 73.7854 1.736V11.224C73.7854 11.512 73.8547 11.7413 73.9934 11.912C74.132 12.072 74.3454 12.152 74.6334 12.152C74.9214 12.152 75.252 11.9973 75.6254 11.688L75.9134 12.072C75.06 12.8507 74.2067 13.24 73.3534 13.24C72.0414 13.24 71.3854 12.456 71.3854 10.888V1.528C70.7987 1.67733 70.3507 1.93867 70.0414 2.312L69.6094 1.816ZM75.5938 1.816C75.9031 1.496 76.2924 1.24 76.7618 1.048C77.2418 0.855999 77.7111 0.759999 78.1698 0.759999C78.6391 0.759999 79.0231 0.855999 79.3218 1.048C79.6204 1.22933 79.7698 1.45867 79.7698 1.736V11.224C79.7698 11.512 79.8391 11.7413 79.9778 11.912C80.1164 12.072 80.3298 12.152 80.6178 12.152C80.9058 12.152 81.2364 11.9973 81.6098 11.688L81.8978 12.072C81.0444 12.8507 80.1911 13.24 79.3378 13.24C78.0258 13.24 77.3698 12.456 77.3698 10.888V1.528C76.7831 1.67733 76.3351 1.93867 76.0258 2.312L75.5938 1.816ZM81.7861 5.816C82.0955 5.496 82.4848 5.24 82.9541 5.048C83.4341 4.856 83.9035 4.76 84.3621 4.76C84.8315 4.76 85.2155 4.856 85.5141 5.048C85.8128 5.22933 85.9621 5.45867 85.9621 5.736V10.584C85.9621 10.9253 86.0688 11.1867 86.2821 11.368C86.4955 11.5387 86.7621 11.624 87.0821 11.624C87.7648 11.624 88.3461 11.3307 88.8261 10.744C89.3168 10.1573 89.5621 9.40533 89.5621 8.488C89.5621 7.976 89.4608 7.43733 89.2581 6.872C89.0661 7 88.8208 7.064 88.5221 7.064C88.2235 7.064 87.9515 6.94667 87.7061 6.712C87.4715 6.46667 87.3541 6.17333 87.3541 5.832C87.3541 5.49067 87.4715 5.20267 87.7061 4.968C87.9515 4.72267 88.2555 4.6 88.6181 4.6C88.9808 4.6 89.2901 4.73867 89.5461 5.016C89.8128 5.28267 90.0048 5.64 90.1221 6.088C90.3141 6.86667 90.4101 7.73067 90.4101 8.68C90.4101 9.61867 90.2981 10.5627 90.0741 11.512C89.8608 12.4613 89.5728 13.2773 89.2101 13.96C88.8581 14.6427 88.4581 15.2347 88.0101 15.736C87.0928 16.7387 86.1595 17.24 85.2101 17.24C84.9541 17.24 84.7408 17.1813 84.5701 17.064C84.4101 16.9573 84.2235 16.7547 84.0101 16.456L83.1781 15.304L83.5941 14.872C84.1061 14.9573 84.5541 15 84.9381 15C86.1328 15 87.1088 14.6213 87.8661 13.864C88.6235 13.1067 89.2208 11.8747 89.6581 10.168C88.9968 12.0027 87.7808 12.92 86.0101 12.92C85.3275 12.92 84.7461 12.6907 84.2661 12.232C83.7968 11.7627 83.5621 11.1013 83.5621 10.248V5.528C82.9755 5.67733 82.5275 5.93867 82.2181 6.312L81.7861 5.816Z" fill="#6B5034"/>
</svg>
