<svg width="28" height="18" viewBox="0 0 28 18" fill="none" xmlns="http://www.w3.org/2000/svg">
<path fill-rule="evenodd" clip-rule="evenodd" d="M1.5 3C0.947715 3 0.5 2.55228 0.5 2V1C0.5 0.447715 0.947715 0 1.5 0H26.5C27.0523 0 27.5 0.447715 27.5 1V2C27.5 2.55228 27.0523 3 26.5 3H1.5ZM0.5 9.5C0.5 10.0523 0.947715 10.5 1.5 10.5H26.5C27.0523 10.5 27.5 10.0523 27.5 9.5V8.5C27.5 7.94772 27.0523 7.5 26.5 7.5H1.5C0.947715 7.5 0.5 7.94772 0.5 8.5V9.5ZM0.5 17C0.5 17.5523 0.947715 18 1.5 18H26.5C27.0523 18 27.5 17.5523 27.5 17V16C27.5 15.4477 27.0523 15 26.5 15H1.5C0.947715 15 0.5 15.4477 0.5 16V17Z" fill="#1C1B1E"/>
</svg>
