<svg width="27" height="26" viewBox="0 0 27 26" fill="none" xmlns="http://www.w3.org/2000/svg">
<rect x="1" y="-1" width="20.7778" height="20.7778" rx="10.3889" transform="matrix(-1 0 0 1 24.8887 3.61133)" stroke="#000105" stroke-width="2"/>
<path d="M7.24027 20.0421V18.4773C7.24027 17.6473 7.57 16.8512 8.15692 16.2643C8.74384 15.6774 9.53987 15.3477 10.3699 15.3477H16.6292C17.4592 15.3477 18.2552 15.6774 18.8421 16.2643C19.4291 16.8512 19.7588 17.6473 19.7588 18.4773V20.0421" stroke="#000105" stroke-width="2" stroke-linecap="round" stroke-linejoin="round"/>
<path d="M13.5003 12.2182C11.7718 12.2182 10.3706 10.8171 10.3706 9.08861C10.3706 7.36017 11.7718 5.95898 13.5003 5.95898C15.2287 5.95898 16.6299 7.36017 16.6299 9.08861C16.6299 10.8171 15.2287 12.2182 13.5003 12.2182Z" stroke="#000105" stroke-width="2" stroke-linecap="round" stroke-linejoin="round"/>
</svg>
