<svg width="15" height="14" viewBox="0 0 15 14" fill="none" xmlns="http://www.w3.org/2000/svg">
<path d="M13.7114 7.998H8.71143V12.998C8.71143 13.2632 8.60607 13.5176 8.41853 13.7051C8.231 13.8926 7.97664 13.998 7.71143 13.998C7.44621 13.998 7.19186 13.8926 7.00432 13.7051C6.81678 13.5176 6.71143 13.2632 6.71143 12.998V7.998H1.71143C1.44621 7.998 1.19186 7.89264 1.00432 7.70511C0.816783 7.51757 0.711426 7.26322 0.711426 6.998C0.711426 6.73278 0.816783 6.47843 1.00432 6.29089C1.19186 6.10336 1.44621 5.998 1.71143 5.998H6.71143V0.998001C6.71143 0.732785 6.81678 0.47843 7.00432 0.290894C7.19186 0.103358 7.44621 -0.0019989 7.71143 -0.0019989C7.97664 -0.0019989 8.231 0.103358 8.41853 0.290894C8.60607 0.47843 8.71143 0.732785 8.71143 0.998001V5.998H13.7114C13.9766 5.998 14.231 6.10336 14.4185 6.29089C14.6061 6.47843 14.7114 6.73278 14.7114 6.998C14.7114 7.26322 14.6061 7.51757 14.4185 7.70511C14.231 7.89264 13.9766 7.998 13.7114 7.998Z" fill="#100503"/>
</svg>
