<svg width="24" height="24" viewBox="0 0 24 24" fill="none" xmlns="http://www.w3.org/2000/svg">
    <path fill-rule="evenodd" clip-rule="evenodd"
        d="M2 10.7766C2 5.9294 5.92939 2 10.7765 2C15.6237 2 19.553 5.9294 19.553 10.7766C19.553 13.1477 18.6127 15.2993 17.0847 16.8786C17.0461 16.9074 17.0091 16.9393 16.9741 16.9743C16.9391 17.0093 16.9072 17.0463 16.8784 17.0849C15.2991 18.6129 13.1476 19.5531 10.7765 19.5531C5.92939 19.5531 2 15.6237 2 10.7766ZM17.6568 19.0712C15.7903 20.6212 13.3923 21.5531 10.7765 21.5531C4.82481 21.5531 0 16.7283 0 10.7766C0 4.82483 4.82481 0 10.7765 0C16.7282 0 21.553 4.82483 21.553 10.7766C21.553 13.3924 20.6211 15.7905 19.071 17.657L23.7043 22.2903C24.0948 22.6808 24.0948 23.314 23.7043 23.7045C23.3137 24.095 22.6806 24.095 22.2901 23.7045L17.6568 19.0712Z"
        fill="#000105" />
</svg>