<svg width="16" height="16" viewBox="0 0 16 16" fill="none" xmlns="http://www.w3.org/2000/svg">
<path fill-rule="evenodd" clip-rule="evenodd" d="M2 7.22204C2 4.33731 4.33777 1.99927 7.22095 1.99927C10.1041 1.99927 12.4419 4.33731 12.4419 7.22204C12.4419 8.62198 11.8913 9.89317 10.995 10.8309C10.9643 10.8551 10.9347 10.8814 10.9064 10.9097C10.8779 10.9381 10.8515 10.9679 10.8272 10.9987C9.88984 11.8946 8.61957 12.4448 7.22095 12.4448C4.33777 12.4448 2 10.1068 2 7.22204ZM11.5701 12.9883C10.3604 13.9026 8.85403 14.4448 7.22095 14.4448C3.23265 14.4448 0 11.2108 0 7.22204C0 3.23329 3.23265 -0.000732422 7.22095 -0.000732422C11.2092 -0.000732422 14.4419 3.23329 14.4419 7.22204C14.4419 8.85628 13.8993 10.3638 12.9843 11.5742L15.7024 14.2937C16.0928 14.6843 16.0927 15.3175 15.702 15.7079C15.3114 16.0983 14.6782 16.0982 14.2878 15.7075L11.5701 12.9883Z" fill="#00030F" fill-opacity="0.6"/>
</svg>
