<svg width="25" height="24" viewBox="0 0 25 24" fill="none" xmlns="http://www.w3.org/2000/svg">
<path d="M21.5 21L17.157 16.657M17.157 16.657C17.8998 15.9141 18.4891 15.0322 18.8912 14.0616C19.2932 13.0909 19.5002 12.0506 19.5002 11C19.5002 9.94942 19.2932 8.90911 18.8912 7.93848C18.4891 6.96785 17.8998 6.08591 17.157 5.34302C16.4141 4.60014 15.5321 4.01084 14.5615 3.6088C13.5909 3.20675 12.5506 2.99982 11.5 2.99982C10.4494 2.99982 9.40905 3.20675 8.43842 3.6088C7.46779 4.01084 6.58585 4.60014 5.84296 5.34302C4.34263 6.84335 3.49976 8.87824 3.49976 11C3.49976 13.1218 4.34263 15.1567 5.84296 16.657C7.34329 18.1574 9.37818 19.0002 11.5 19.0002C13.6217 19.0002 15.6566 18.1574 17.157 16.657Z" stroke="#100503" stroke-linecap="round" stroke-linejoin="round"/>
<path d="M21.5 21L17.157 16.657M17.157 16.657C17.8998 15.9141 18.4891 15.0322 18.8912 14.0616C19.2932 13.0909 19.5002 12.0506 19.5002 11C19.5002 9.94942 19.2932 8.90911 18.8912 7.93848C18.4891 6.96785 17.8998 6.08591 17.157 5.34302C16.4141 4.60014 15.5321 4.01084 14.5615 3.6088C13.5909 3.20675 12.5506 2.99982 11.5 2.99982C10.4494 2.99982 9.40905 3.20675 8.43842 3.6088C7.46779 4.01084 6.58585 4.60014 5.84296 5.34302C4.34263 6.84335 3.49976 8.87824 3.49976 11C3.49976 13.1218 4.34263 15.1567 5.84296 16.657C7.34329 18.1574 9.37818 19.0002 11.5 19.0002C13.6217 19.0002 15.6566 18.1574 17.157 16.657Z" stroke="#100503" stroke-linecap="round" stroke-linejoin="round"/>
</svg>
