<svg width="32" height="33" viewBox="0 0 32 33" fill="none" xmlns="http://www.w3.org/2000/svg">
<path d="M21 14.5V8.5C21 7.17392 20.4732 5.90215 19.5355 4.96447C18.5978 4.02678 17.3261 3.5 16 3.5C14.6739 3.5 13.4021 4.02678 12.4644 4.96447C11.5268 5.90215 11 7.17392 11 8.5V14.5M26.1413 11.8427L27.8253 27.8427C27.9186 28.7293 27.2253 29.5 26.3333 29.5H5.66665C5.45626 29.5002 5.24817 29.4562 5.05591 29.3708C4.86365 29.2853 4.69151 29.1604 4.55068 29.0041C4.40984 28.8478 4.30347 28.6636 4.23845 28.4635C4.17344 28.2634 4.15125 28.0519 4.17331 27.8427L5.85865 11.8427C5.89752 11.4741 6.07148 11.1329 6.34698 10.885C6.62248 10.6371 6.98001 10.4999 7.35065 10.5H24.6493C25.4173 10.5 26.0613 11.08 26.1413 11.8427ZM11.5 14.5C11.5 14.6326 11.4473 14.7598 11.3535 14.8536C11.2598 14.9473 11.1326 15 11 15C10.8674 15 10.7402 14.9473 10.6464 14.8536C10.5527 14.7598 10.5 14.6326 10.5 14.5C10.5 14.3674 10.5527 14.2402 10.6464 14.1464C10.7402 14.0527 10.8674 14 11 14C11.1326 14 11.2598 14.0527 11.3535 14.1464C11.4473 14.2402 11.5 14.3674 11.5 14.5ZM21.5 14.5C21.5 14.6326 21.4473 14.7598 21.3535 14.8536C21.2598 14.9473 21.1326 15 21 15C20.8674 15 20.7402 14.9473 20.6464 14.8536C20.5527 14.7598 20.5 14.6326 20.5 14.5C20.5 14.3674 20.5527 14.2402 20.6464 14.1464C20.7402 14.0527 20.8674 14 21 14C21.1326 14 21.2598 14.0527 21.3535 14.1464C21.4473 14.2402 21.5 14.3674 21.5 14.5Z" stroke="#100503" stroke-width="1.5" stroke-linecap="round" stroke-linejoin="round"/>
<path d="M21 14.5V8.5C21 7.17392 20.4732 5.90215 19.5355 4.96447C18.5978 4.02678 17.3261 3.5 16 3.5C14.6739 3.5 13.4021 4.02678 12.4644 4.96447C11.5268 5.90215 11 7.17392 11 8.5V14.5M26.1413 11.8427L27.8253 27.8427C27.9186 28.7293 27.2253 29.5 26.3333 29.5H5.66665C5.45626 29.5002 5.24817 29.4562 5.05591 29.3708C4.86365 29.2853 4.69151 29.1604 4.55068 29.0041C4.40984 28.8478 4.30347 28.6636 4.23845 28.4635C4.17344 28.2634 4.15125 28.0519 4.17331 27.8427L5.85865 11.8427C5.89752 11.4741 6.07148 11.1329 6.34698 10.885C6.62248 10.6371 6.98001 10.4999 7.35065 10.5H24.6493C25.4173 10.5 26.0613 11.08 26.1413 11.8427ZM11.5 14.5C11.5 14.6326 11.4473 14.7598 11.3535 14.8536C11.2598 14.9473 11.1326 15 11 15C10.8674 15 10.7402 14.9473 10.6464 14.8536C10.5527 14.7598 10.5 14.6326 10.5 14.5C10.5 14.3674 10.5527 14.2402 10.6464 14.1464C10.7402 14.0527 10.8674 14 11 14C11.1326 14 11.2598 14.0527 11.3535 14.1464C11.4473 14.2402 11.5 14.3674 11.5 14.5ZM21.5 14.5C21.5 14.6326 21.4473 14.7598 21.3535 14.8536C21.2598 14.9473 21.1326 15 21 15C20.8674 15 20.7402 14.9473 20.6464 14.8536C20.5527 14.7598 20.5 14.6326 20.5 14.5C20.5 14.3674 20.5527 14.2402 20.6464 14.1464C20.7402 14.0527 20.8674 14 21 14C21.1326 14 21.2598 14.0527 21.3535 14.1464C21.4473 14.2402 21.5 14.3674 21.5 14.5Z" stroke="#100503" stroke-width="1.5" stroke-linecap="round" stroke-linejoin="round"/>
</svg>
