<svg width="18" height="18" viewBox="0 0 18 18" fill="none" xmlns="http://www.w3.org/2000/svg">
<path d="M13.1335 16.847L13.1324 16.8464L9.46644 14.9194L9.4658 14.9191C9.32263 14.8441 9.16342 14.8049 9.00181 14.8049C8.84019 14.8049 8.68098 14.8441 8.53781 14.9191L8.53736 14.9193L7.55532 15.4349L8.53307 14.9192L8.53314 14.9192C8.67698 14.8433 8.83717 14.8036 8.99981 14.8036C9.16245 14.8036 9.32263 14.8433 9.46647 14.9192L9.46745 14.9197L13.1314 16.8427L13.1317 16.8428C13.2968 16.9294 13.4828 16.968 13.6687 16.9545C13.8547 16.9409 14.0331 16.8756 14.1839 16.766C14.3347 16.6564 14.4519 16.5068 14.5221 16.3341C14.5924 16.1615 14.613 15.9726 14.5817 15.7888L14.5816 15.7885L13.8816 11.7065C13.8816 11.7065 13.8816 11.7065 13.8816 11.7065C13.8542 11.5466 13.8661 11.3825 13.9163 11.2283C13.9665 11.0741 14.0534 10.9344 14.1696 10.8212L14.1698 10.821L17.1347 7.93116C17.2684 7.80095 17.363 7.63592 17.4077 7.45472C17.4525 7.27354 17.4457 7.08344 17.3881 6.90593C17.3463 6.77739 17.2791 6.65917 17.1911 6.55805C17.2811 6.66012 17.3497 6.77991 17.3921 6.91034C17.4498 7.08786 17.4567 7.278 17.412 7.45924C17.3672 7.64048 17.2726 7.80557 17.1389 7.93583L17.1387 7.93598L14.1739 10.8268C14.1738 10.8269 14.1738 10.8269 14.1737 10.827C14.0578 10.94 13.9711 11.0794 13.9209 11.2333C13.8707 11.3873 13.8587 11.5512 13.8859 11.7108L13.886 11.7115L14.586 15.7935L14.586 15.7936C14.6107 15.9372 14.6037 16.0845 14.5655 16.2251C14.5273 16.3657 14.4589 16.4962 14.365 16.6076C14.271 16.719 14.1539 16.8085 14.0218 16.8699C13.8897 16.9312 13.7458 16.963 13.6002 16.963C13.4375 16.9628 13.2774 16.923 13.1335 16.847ZM3.47727 16.3435C3.48271 16.3568 3.48842 16.3701 3.49441 16.3832C3.48757 16.3684 3.48108 16.3535 3.47494 16.3384C3.4046 16.1656 3.38405 15.9765 3.41561 15.7925L3.41561 15.7925L4.11558 11.7107C4.11559 11.7106 4.1156 11.7106 4.11561 11.7105C4.14299 11.5511 4.13127 11.3874 4.08148 11.2334C4.03166 11.0795 3.94522 10.9399 3.82958 10.8267L3.82892 10.826L3.13509 10.1493L3.8309 10.8261C3.94739 10.9396 4.03445 11.0798 4.08452 11.2345C4.13459 11.3893 4.14616 11.5539 4.11823 11.7141L4.118 11.7155L3.41804 15.7972C3.41802 15.7973 3.41801 15.7974 3.418 15.7975C3.38641 15.9814 3.40694 16.1706 3.47727 16.3435ZM0.916056 6.45827C0.798019 6.55779 0.704972 6.683 0.643712 6.82378C0.705004 6.68112 0.798862 6.55428 0.918255 6.45371C1.06103 6.33345 1.23462 6.25555 1.41937 6.22883L1.4202 6.22871L5.51993 5.62875C5.52002 5.62873 5.52011 5.62872 5.52021 5.62871C5.68028 5.60533 5.8323 5.54346 5.96321 5.44841C6.09419 5.3533 6.20014 5.22783 6.27193 5.08275L6.27217 5.08226L6.54603 4.52737L6.27055 5.08646C6.27053 5.08651 6.27051 5.08655 6.27048 5.0866C6.19865 5.23191 6.09256 5.35758 5.96137 5.45278C5.83013 5.54802 5.6777 5.60991 5.51722 5.63313L5.51641 5.63325L1.41695 6.23317C1.41683 6.23318 1.4167 6.2332 1.41658 6.23322C1.41652 6.23323 1.41646 6.23324 1.41641 6.23324C1.23191 6.26014 1.0586 6.33808 0.916056 6.45827ZM8.14164 1.30101C8.22336 1.16319 8.33722 1.04668 8.47394 0.96171C8.63239 0.863227 8.81524 0.811035 9.00181 0.811035C9.18837 0.811035 9.37122 0.863227 9.52968 0.96171C9.68811 1.06018 9.81584 1.201 9.89844 1.36826C9.89845 1.36828 9.89846 1.36831 9.89847 1.36833L11.7311 5.08167C11.7727 5.16611 11.8258 5.24395 11.8886 5.31308C11.8241 5.24302 11.7697 5.16385 11.7272 5.07782L11.7271 5.07755L9.8971 1.37255L9.89128 1.36077L9.88485 1.3493C9.79655 1.19193 9.66792 1.06091 9.51219 0.969725C9.35647 0.878539 9.17926 0.830475 8.99881 0.830475C8.81835 0.830475 8.64114 0.87854 8.48542 0.969725C8.34591 1.05142 8.22815 1.16507 8.14164 1.30101Z" fill="#E85A50" stroke="#E85A50"/>
</svg>
