<svg width="21" height="24" viewBox="0 0 21 24" fill="none" xmlns="http://www.w3.org/2000/svg">
    <path fill-rule="evenodd" clip-rule="evenodd"
        d="M6.75073 5.88828C6.75073 3.71369 8.45663 2 10.5012 2C12.5457 2 14.2516 3.71369 14.2516 5.88828C14.2516 8.06288 12.5457 9.77656 10.5012 9.77656C8.45663 9.77656 6.75073 8.06288 6.75073 5.88828ZM10.5012 0C7.29853 0 4.75073 2.66343 4.75073 5.88828C4.75073 9.11314 7.29853 11.7766 10.5012 11.7766C13.7038 11.7766 16.2516 9.11314 16.2516 5.88828C16.2516 2.66343 13.7038 0 10.5012 0ZM5.75045 14.6648C4.21596 14.6648 2.7503 15.2923 1.67423 16.3996C0.599104 17.5059 0 19.0005 0 20.553V22.9972C0 23.5495 0.447715 23.9972 1 23.9972C1.55228 23.9972 2 23.5495 2 22.9972V20.553C2 19.5127 2.40188 18.5206 3.10852 17.7934C3.81421 17.0673 4.76515 16.6648 5.75045 16.6648H15.2513C16.2366 16.6648 17.1876 17.0673 17.8933 17.7934C18.5999 18.5206 19.0018 19.5127 19.0018 20.553V22.9972C19.0018 23.5495 19.4495 23.9972 20.0018 23.9972C20.5541 23.9972 21.0018 23.5495 21.0018 22.9972V20.553C21.0018 19.0005 20.4027 17.5059 19.3276 16.3996C18.2515 15.2923 16.7858 14.6648 15.2513 14.6648H5.75045Z"
        fill="#000105" />
</svg>