<svg width="22" height="24" viewBox="0 0 22 24" fill="none" xmlns="http://www.w3.org/2000/svg">
<path fill-rule="evenodd" clip-rule="evenodd" d="M7.24976 5.88828C7.24976 3.71369 8.95566 2 11.0002 2C13.0448 2 14.7507 3.71369 14.7507 5.88828C14.7507 8.06288 13.0448 9.77656 11.0002 9.77656C8.95566 9.77656 7.24976 8.06288 7.24976 5.88828ZM11.0002 0C7.79755 0 5.24976 2.66343 5.24976 5.88828C5.24976 9.11314 7.79755 11.7766 11.0002 11.7766C14.2029 11.7766 16.7507 9.11314 16.7507 5.88828C16.7507 2.66343 14.2029 0 11.0002 0ZM6.24947 14.6648C4.71498 14.6648 3.24932 15.2923 2.17325 16.3996C1.09813 17.5059 0.499023 19.0005 0.499023 20.553V22.9972C0.499023 23.5495 0.946739 23.9972 1.49902 23.9972C2.05131 23.9972 2.49902 23.5495 2.49902 22.9972V20.553C2.49902 19.5127 2.9009 18.5206 3.60754 17.7934C4.31324 17.0673 5.26417 16.6648 6.24947 16.6648H15.7504C16.7357 16.6648 17.6866 17.0673 18.3923 17.7934C19.0989 18.5206 19.5008 19.5127 19.5008 20.553V22.9972C19.5008 23.5495 19.9485 23.9972 20.5008 23.9972C21.0531 23.9972 21.5008 23.5495 21.5008 22.9972V20.553C21.5008 19.0005 20.9017 17.5059 19.8266 16.3996C18.7505 15.2923 17.2849 14.6648 15.7504 14.6648H6.24947Z" fill="#000105"/>
</svg>
