<svg width="32" height="32" viewBox="0 0 32 32" fill="none" xmlns="http://www.w3.org/2000/svg">
<path d="M27.1121 10.2222H19.3345V8H27.1121V10.2222ZM29.0299 21.3332C28.5388 22.7743 26.7755 24.6665 23.3622 24.6665C19.9467 24.6665 17.18 22.7454 17.18 18.361C17.18 14.0166 19.7633 11.7833 23.2533 11.7833C26.6777 11.7833 28.7688 13.7633 29.2255 16.701C29.3121 17.2632 29.3466 18.021 29.331 19.0788H20.4122C20.5567 22.6465 24.2822 22.7587 25.5099 21.3332H29.0299ZM20.49 16.8888H26.0066C25.8899 15.1699 24.7444 14.4233 23.2544 14.4233C21.6255 14.4233 20.7244 15.2766 20.49 16.8888ZM9.85234 24.6532H2.66797V8.02333H10.3934C16.4778 8.11333 16.5934 14.0722 13.4156 15.6966C17.2611 17.0966 17.39 24.6532 9.85234 24.6532V24.6532ZM6.00127 14.6666H9.98345C12.7701 14.6666 13.2123 11.3333 9.63678 11.3333H6.00127V14.6666V14.6666ZM9.769 17.9999H6.00127V21.351H9.71345C13.1079 21.351 12.9001 17.9999 9.769 17.9999V17.9999Z" stroke="#100503" stroke-linejoin="round"/>
</svg>
