<svg width="32" height="32" viewBox="0 0 32 32" fill="none" xmlns="http://www.w3.org/2000/svg">
<path fill-rule="evenodd" clip-rule="evenodd" d="M16.0013 2.66666C8.63464 2.66666 2.66797 8.63332 2.66797 16C2.66797 21.9 6.48464 26.8833 11.7846 28.65C12.4513 28.7667 12.7013 28.3667 12.7013 28.0167C12.7013 27.7 12.6846 26.65 12.6846 25.5333C9.33464 26.15 8.46797 24.7167 8.2013 23.9667C8.0513 23.5833 7.4013 22.4 6.83464 22.0833C6.36797 21.8333 5.7013 21.2167 6.81797 21.2C7.86797 21.1833 8.61797 22.1667 8.86797 22.5667C10.068 24.5833 11.9846 24.0167 12.7513 23.6667C12.868 22.8 13.218 22.2167 13.6013 21.8833C10.6346 21.55 7.53464 20.4 7.53464 15.3C7.53464 13.85 8.0513 12.65 8.9013 11.7167C8.76797 11.3833 8.3013 10.0167 9.03464 8.18332C9.03464 8.18332 10.1513 7.83332 12.7013 9.54999C13.768 9.24999 14.9013 9.09999 16.0346 9.09999C17.168 9.09999 18.3013 9.24999 19.368 9.54999C21.918 7.81666 23.0346 8.18332 23.0346 8.18332C23.768 10.0167 23.3013 11.3833 23.168 11.7167C24.018 12.65 24.5346 13.8333 24.5346 15.3C24.5346 20.4167 21.418 21.55 18.4513 21.8833C18.9346 22.3 19.3513 23.1 19.3513 24.35C19.3513 26.1333 19.3346 27.5667 19.3346 28.0167C19.3346 28.3667 19.5846 28.7833 20.2513 28.65C22.8982 27.7564 25.1983 26.0553 26.8277 23.786C28.4571 21.5168 29.3339 18.7937 29.3346 16C29.3346 8.63332 23.368 2.66666 16.0013 2.66666Z" stroke="#100503" stroke-width="1.5" stroke-linejoin="round"/>
</svg>
