<svg width="32" height="32" viewBox="0 0 32 32" fill="none" xmlns="http://www.w3.org/2000/svg">
<path d="M28.5569 13.7778C28.6902 14.5889 28.768 15.4222 28.768 16.3C28.768 20.3555 27.3235 23.7778 24.8124 26.1C22.6124 28.1333 19.6013 29.3333 16.0013 29.3333C10.7902 29.3333 6.29019 26.3333 4.1013 21.9778C3.19019 20.1778 2.66797 18.1555 2.66797 16C2.66797 13.8444 3.19019 11.8222 4.1013 10.0222C6.29019 5.66666 10.7902 2.66666 16.0013 2.66666C19.6013 2.66666 22.6124 3.98888 24.9124 6.14444L21.1124 9.94444C19.7235 8.62222 17.968 7.94443 16.0013 7.94443C12.5235 7.94443 9.57908 10.2889 8.52353 13.4555C8.25686 14.2555 8.1013 15.1111 8.1013 16C8.1013 16.8889 8.24575 17.7444 8.52353 18.5444C9.57908 21.7111 12.5235 24.0555 16.0013 24.0555C17.8013 24.0555 19.3235 23.5667 20.5235 22.7667C21.9235 21.8222 22.868 20.4333 23.1902 18.7889H16.0013V13.7778H28.5569Z" stroke="#100503" stroke-width="1.5" stroke-linejoin="round"/>
</svg>
