<svg width="32" height="32" viewBox="0 0 32 32" fill="none" xmlns="http://www.w3.org/2000/svg">
<path d="M29.3346 4.62744V27.3725C29.3346 27.8926 29.1281 28.3913 28.7603 28.759C28.3926 29.1267 27.8939 29.3333 27.3738 29.3333H4.62875C4.10872 29.3333 3.60999 29.1267 3.24227 28.759C2.87455 28.3913 2.66797 27.8926 2.66797 27.3725V4.62744C2.66797 4.10741 2.87455 3.60868 3.24227 3.24096C3.60999 2.87324 4.10872 2.66666 4.62875 2.66666L27.3738 2.66666C27.8939 2.66666 28.3926 2.87324 28.7603 3.24096C29.1281 3.60868 29.3346 4.10741 29.3346 4.62744V4.62744ZM10.5111 12.8627H6.58954V25.4118H10.5111V12.8627ZM10.864 8.54901C10.8661 8.25237 10.8097 7.95824 10.6981 7.68339C10.5865 7.40855 10.4219 7.15838 10.2136 6.94717C10.0053 6.73596 9.75741 6.56785 9.48414 6.45243C9.21087 6.33701 8.91754 6.27655 8.62091 6.2745H8.55032C7.94708 6.2745 7.36855 6.51413 6.942 6.94069C6.51545 7.36724 6.27581 7.94577 6.27581 8.54901C6.27581 9.15225 6.51545 9.73078 6.942 10.1573C7.36855 10.5839 7.94708 10.8235 8.55032 10.8235V10.8235C8.84698 10.8308 9.14216 10.7796 9.41901 10.6728C9.69586 10.5659 9.94895 10.4056 10.1638 10.2009C10.3787 9.99628 10.5511 9.75128 10.6713 9.47994C10.7914 9.20861 10.8569 8.91626 10.864 8.6196V8.54901ZM25.4131 17.7882C25.4131 14.0157 23.0131 12.549 20.6288 12.549C19.8481 12.5099 19.0708 12.6762 18.3744 13.0313C17.6781 13.3863 17.087 13.9177 16.6601 14.5725H16.5503V12.8627H12.864V25.4118H16.7856V18.7372C16.7289 18.0537 16.9443 17.3753 17.3848 16.8496C17.8254 16.3238 18.4556 15.9932 19.1386 15.9294H19.2876C20.5346 15.9294 21.4601 16.7137 21.4601 18.6902V25.4118H25.3817L25.4131 17.7882Z" stroke="#100503" stroke-width="1.5" stroke-linejoin="round"/>
</svg>
