<svg width="32" height="32" viewBox="0 0 32 32" fill="none" xmlns="http://www.w3.org/2000/svg">
<circle cx="16" cy="16" r="15" fill="#E85A50"/>
<path d="M15.4539 11.12V22.28H16.5339V23H11.6739V22.28H12.7539V18.086H8.25387V22.28H9.33387V23H4.47387V22.28H5.55387V11.12H4.47387V10.4H9.33387V11.12H8.25387V17.276H12.7539V11.12H11.6739V10.4H16.5339V11.12H15.4539Z" fill="white"/>
<path d="M13.1902 11.12V10.4H17.1682L20.4442 21.182L23.5402 10.4H27.6262V11.12H26.4022L27.0502 22.28H28.1302V23H23.3062V22.28H24.3322L23.7742 13.37L21.0022 23H18.2842L15.3502 13.388L14.8462 22.28H15.8902V23H12.6862V22.28H13.7662L14.3962 11.12H13.1902Z" fill="white"/>
</svg>
