<svg width="16" height="16" viewBox="0 0 16 16" fill="none" xmlns="http://www.w3.org/2000/svg">
<circle cx="8" cy="8" r="7" fill="#E85A50"/>
<path d="M6.75119 5.72V5.4H8.51919L9.97519 10.192L11.3512 5.4H13.1672V5.72H12.6232L12.9112 10.68H13.3912V11H11.2472V10.68H11.7032L11.4552 6.72L10.2232 11H9.01519L7.71119 6.728L7.48719 10.68H7.95119V11H6.52719V10.68H7.00719L7.28719 5.72H6.75119Z" fill="white"/>
<path d="M7.70172 5.72V10.68H8.18172V11H6.02172V10.68H6.50172V8.816H4.50172V10.68H4.98172V11H2.82172V10.68H3.30172V5.72H2.82172V5.4H4.98172V5.72H4.50172V8.456H6.50172V5.72H6.02172V5.4H8.18172V5.72H7.70172Z" fill="white"/>
</svg>
