<svg width="33" height="20" viewBox="0 0 33 20" fill="none" xmlns="http://www.w3.org/2000/svg">
<path fill-rule="evenodd" clip-rule="evenodd" d="M17.08 8.65426V1.5199H18.76V0.399902H14.572L17.08 8.65426ZM16.308 19.9999L12.88 8.76952V11.0959H11.4012L11.3298 12.3559H12.88V18.8799H12.584V19.9999H16.308ZM9.64829 12.3559H5.88V18.8799H7.56V19.9999H0V18.8799H1.68V1.5199H0V0.399902H7.56V1.5199H5.88V11.0959H9.71942L9.64829 12.3559Z" fill="#6B5034"/>
<path d="M8.38401 1.52V0.399999H14.572L19.668 17.172L24.484 0.399999H30.84V1.52H28.936L29.944 18.88H31.624V20H24.12V18.88H25.716L24.848 5.02L20.536 20H16.308L11.744 5.048L10.96 18.88H12.584V20H7.60001V18.88H9.28001L10.26 1.52H8.38401Z" fill="#BA8B5B"/>
</svg>
